<svg width="60" height="58" viewBox="0 0 60 58" fill="none" xmlns="http://www.w3.org/2000/svg">
<rect width="60" height="58" rx="5" fill="#7F7DFF" fill-opacity="0.2"/>
<g clip-path="url(#clip0_1013_274)">
<path d="M32 24V17.46C32.913 17.806 33.753 18.339 34.465 19.05L37.949 22.536C38.661 23.247 39.194 24.087 39.54 25H33C32.448 25 32 24.551 32 24ZM40 27.485V36C40 38.757 37.757 41 35 41H25C22.243 41 20 38.757 20 36V22C20 19.243 22.243 17 25 17V19C25 19.552 25.447 20 26 20C26.553 20 27 19.552 27 19V17H29.515C29.678 17 29.839 17.013 30 17.024V24C30 25.654 31.346 27 33 27H39.976C39.987 27.161 40 27.322 40 27.485ZM25 23C25 23.552 25.447 24 26 24C26.553 24 27 23.552 27 23V22C27 21.448 26.553 21 26 21C25.447 21 25 21.448 25 22V23ZM25 27C25 27.552 25.447 28 26 28C26.553 28 27 27.552 27 27V26C27 25.448 26.553 25 26 25C25.447 25 25 25.448 25 26V27ZM28.044 32.481L27.287 29.957C27.116 29.389 26.593 28.999 26 28.999C25.407 28.999 24.883 29.388 24.713 29.957L23.956 32.481C23.729 33.238 24.296 34 25.086 34H26.915C27.705 34 28.272 33.238 28.045 32.481H28.044Z" fill="#7F7DFF"/>
</g>
<defs>
<clipPath id="clip0_1013_274">
<rect width="24" height="24" fill="white" transform="translate(18 17)"/>
</clipPath>
</defs>
</svg>
