<svg width="17" height="3" viewBox="0 0 17 3" fill="none" xmlns="http://www.w3.org/2000/svg">
<path d="M14 1.5C14 2.32843 14.6716 3 15.5 3C16.3284 3 17 2.32843 17 1.5C17 0.671573 16.3284 -2.93554e-08 15.5 -6.55671e-08C14.6716 -1.01779e-07 14 0.671573 14 1.5Z" fill="white" fill-opacity="0.7"/>
<path d="M7 1.5C7 2.32843 7.67157 3 8.5 3C9.32843 3 10 2.32843 10 1.5C10 0.671573 9.32843 -2.93554e-08 8.5 -6.55671e-08C7.67157 -1.01779e-07 7 0.671573 7 1.5Z" fill="white" fill-opacity="0.7"/>
<path d="M-6.55671e-08 1.5C-1.01779e-07 2.32843 0.671573 3 1.5 3C2.32843 3 3 2.32843 3 1.5C3 0.671573 2.32843 -2.93554e-08 1.5 -6.55671e-08C0.671573 -1.01779e-07 -2.93554e-08 0.671573 -6.55671e-08 1.5Z" fill="white" fill-opacity="0.7"/>
</svg>
