<svg width="54" height="54" viewBox="0 0 54 54" fill="none" xmlns="http://www.w3.org/2000/svg">
<g filter="url(#filter0_b_850_778)">
<rect width="54" height="54" rx="6" fill="#8AD6F1" fill-opacity="0.1"/>
<path d="M24.9466 18.0156C24.9953 18.0152 25.044 18.0148 25.0942 18.0144C25.2549 18.0133 25.4157 18.0129 25.5765 18.0126C25.6887 18.0122 25.8009 18.0118 25.9131 18.0113C26.1483 18.0106 26.3835 18.0102 26.6188 18.0101C26.9191 18.0098 27.2195 18.0081 27.5198 18.006C27.7517 18.0046 27.9835 18.0043 28.2153 18.0042C28.326 18.004 28.4367 18.0035 28.5473 18.0025C29.8113 17.9923 29.8113 17.9923 30.3381 18.4368C30.3893 18.4787 30.3893 18.4787 30.4415 18.5214C30.7617 18.8293 30.9827 19.1579 31.1984 19.5454C31.2594 19.653 31.3204 19.7606 31.3816 19.8682C31.3971 19.8957 31.4127 19.9231 31.4287 19.9515C31.5951 20.2449 31.7676 20.5346 31.9404 20.8243C32.2115 21.2798 32.478 21.7378 32.742 22.1975C32.9492 22.5576 33.1599 22.9154 33.3723 23.2724C33.6433 23.728 33.9099 24.1859 34.1739 24.6456C34.3811 25.0057 34.5918 25.3635 34.8042 25.7205C35.0736 26.1735 35.3391 26.6285 35.6016 27.0856C35.7585 27.3586 35.9165 27.6307 36.0764 27.9019C36.0941 27.9319 36.1117 27.9619 36.1299 27.9928C36.2156 28.1383 36.3015 28.2836 36.3875 28.4288C36.7386 29.0226 36.9908 29.4925 36.9953 30.1894C36.9969 30.2294 36.9984 30.2693 36.9999 30.3105C37.0043 30.8484 36.7373 31.2788 36.4468 31.7137C36.2156 32.0688 35.9926 32.4269 35.78 32.7934C35.7538 32.8385 35.7277 32.8835 35.7008 32.9299C35.5679 33.1598 35.4363 33.3904 35.3055 33.6214C35.2558 33.7094 35.2059 33.7974 35.156 33.8853C35.0924 33.9975 35.0291 34.1099 34.966 34.2224C34.8055 34.5061 34.6405 34.7748 34.4347 35.0279C34.4118 35.0562 34.389 35.0845 34.3654 35.1137C34.0999 35.4307 33.5898 35.6873 33.1875 35.767C33.116 35.7711 33.0444 35.773 32.9729 35.7732C32.9297 35.7734 32.8865 35.7736 32.842 35.7738C32.7711 35.7738 32.7711 35.7738 32.6987 35.7738C32.6484 35.7739 32.598 35.7741 32.5462 35.7743C32.3769 35.7748 32.2075 35.775 32.0382 35.7751C31.9171 35.7754 31.7959 35.7757 31.6747 35.7761C31.3107 35.777 30.9467 35.7774 30.5826 35.7778C30.4111 35.778 30.2395 35.7783 30.068 35.7785C29.4975 35.7793 28.927 35.78 28.3566 35.7803C28.2086 35.7804 28.0606 35.7805 27.9126 35.7806C27.8574 35.7806 27.8574 35.7806 27.8011 35.7807C27.2055 35.781 26.61 35.7822 26.0145 35.7837C25.4027 35.7852 24.7909 35.7861 24.1791 35.7862C23.8357 35.7863 23.4924 35.7867 23.149 35.7879C22.8566 35.7889 22.5641 35.7893 22.2716 35.7888C22.1225 35.7886 21.9734 35.7888 21.8243 35.7896C21.6623 35.7904 21.5003 35.7901 21.3382 35.7895C21.2917 35.79 21.2451 35.7905 21.1971 35.791C20.6068 35.7857 20.0634 35.5319 19.6387 35.1253C19.4157 34.8979 19.2639 34.6475 19.1125 34.3687C19.0662 34.2833 19.019 34.1985 18.9716 34.1138C18.9065 33.9973 18.8417 33.8806 18.7771 33.7639C18.6403 33.5175 18.4993 33.2736 18.3574 33.0302C18.3315 32.9857 18.3057 32.9412 18.279 32.8953C18.0537 32.5107 17.8181 32.1327 17.5778 31.7572C17.2455 31.2338 17.0044 30.7764 17.0034 30.1461C17.0023 30.1082 17.0012 30.0702 17 30.0311C16.9974 29.4721 17.242 29.0183 17.5231 28.5497C17.5696 28.4706 17.6162 28.3915 17.6627 28.3124C17.7101 28.2318 17.7578 28.1515 17.8056 28.0711C17.9198 27.8784 18.0325 27.6848 18.1451 27.4912C18.2251 27.3537 18.3053 27.2163 18.3856 27.079C18.491 26.8985 18.5964 26.7179 18.7017 26.5373C19.0119 26.005 19.323 25.4732 19.6347 24.9418C19.9653 24.3782 20.2946 23.8139 20.6236 23.2493C21.0026 22.599 21.3822 21.9492 21.7632 21.3002C21.9478 20.9855 22.1317 20.6705 22.3149 20.355C22.4192 20.1755 22.5241 19.9964 22.6292 19.8174C22.6772 19.7354 22.725 19.6533 22.7726 19.5711C23.2791 18.6973 23.8643 18.0163 24.9466 18.0156ZM26.9518 22.7874C26.9325 22.8212 26.9133 22.8551 26.8934 22.89C26.5205 23.5456 26.1449 24.1992 25.7598 24.8477C25.6053 25.108 25.4528 25.3694 25.3004 25.631C25.0586 26.0462 24.816 26.4608 24.5729 26.8753C24.2256 27.4675 23.8794 28.0604 23.5337 28.6536C23.422 28.8451 23.3104 29.0366 23.1988 29.2281C23.1721 29.2739 23.1454 29.3197 23.1179 29.3669C22.9937 29.5798 22.8692 29.7925 22.7437 30.0047C22.7219 30.0415 22.7002 30.0783 22.6777 30.1163C22.6374 30.1844 22.5969 30.2525 22.5564 30.3206C22.4655 30.449 22.4655 30.449 22.4251 30.5936C25.4432 30.5936 28.4613 30.5936 31.5708 30.5936C31.4489 30.3802 31.3269 30.1668 31.2013 29.9469C31.0598 29.6952 31.0598 29.6952 30.9929 29.5758C30.7166 29.0834 30.4318 28.5965 30.1428 28.1114C29.9307 27.7549 29.7219 27.3967 29.5153 27.0369C29.2496 26.5743 28.979 26.1148 28.7062 25.6563C28.4947 25.3002 28.2867 24.9422 28.0805 24.583C27.841 24.1665 27.5989 23.7516 27.353 23.3388C27.3087 23.2637 27.3087 23.2637 27.2634 23.1871C27.236 23.1414 27.2086 23.0956 27.1804 23.0485C27.1442 22.9877 27.1442 22.9877 27.1072 22.9258C27.0511 22.8277 27.0511 22.8277 26.9518 22.7874Z" fill="#8AD6F1"/>
<path d="M29.9082 18.2144C30.0732 18.274 30.2027 18.3435 30.3412 18.4511C30.3739 18.476 30.4067 18.5009 30.4404 18.5265C30.7688 18.8238 30.9842 19.1602 31.1986 19.5452C31.2596 19.6529 31.3206 19.7605 31.3818 19.868C31.3973 19.8955 31.4129 19.923 31.4289 19.9513C31.5953 20.2447 31.7678 20.5345 31.9406 20.8241C32.2117 21.2797 32.4782 21.7377 32.7422 22.1974C32.9494 22.5574 33.1601 22.9152 33.3725 23.2722C33.6435 23.7278 33.9101 24.1858 34.1741 24.6455C34.3813 25.0055 34.592 25.3634 34.8044 25.7203C35.0738 26.1733 35.3393 26.6284 35.6018 27.0855C35.7586 27.3584 35.9167 27.6306 36.0766 27.9018C36.0943 27.9318 36.1119 27.9618 36.1301 27.9927C36.2158 28.1381 36.3016 28.2834 36.3877 28.4286C36.7388 29.0224 36.991 29.4924 36.9955 30.1893C36.9971 30.2292 36.9986 30.2692 37.0001 30.3104C37.0045 30.8483 36.7375 31.2786 36.447 31.7136C36.2158 32.0686 35.9928 32.4268 35.7802 32.7933C35.754 32.8383 35.7279 32.8833 35.701 32.9297C35.5681 33.1596 35.4365 33.3902 35.3057 33.6213C35.2559 33.7093 35.2061 33.7972 35.1562 33.8851C35.0926 33.9973 35.0293 34.1097 34.9662 34.2222C34.3697 35.2765 34.3697 35.2765 33.8806 35.4897C33.7882 35.4916 33.6958 35.4918 33.6034 35.4897C33.2326 34.6155 32.8645 33.7403 32.5093 32.8597C32.3969 32.5815 32.2843 32.3034 32.1715 32.0254C32.1576 31.9912 32.1438 31.957 32.1295 31.9217C32.0481 31.7214 31.9662 31.5214 31.8836 31.3216C31.8585 31.2607 31.8336 31.1998 31.8089 31.1389C31.6849 30.8339 31.5574 30.5537 31.367 30.2847C31.2313 30.0862 31.1174 29.8744 30.9994 29.665C30.9187 29.5217 30.8374 29.3788 30.756 29.2359C30.7393 29.2066 30.7226 29.1772 30.7054 29.147C30.5346 28.8476 30.3589 28.5512 30.1824 28.2551C29.9416 27.8507 29.7037 27.4449 29.4694 27.0368C29.2036 26.5741 28.933 26.1146 28.6602 25.6561C28.4197 25.2513 28.1837 24.844 27.9501 24.4351C27.8013 24.1756 27.6494 23.9186 27.492 23.6643C27.4593 23.6111 27.4266 23.5579 27.3938 23.5047C27.3315 23.4039 27.2687 23.3033 27.2052 23.2032C27.1774 23.158 27.1495 23.1129 27.1208 23.0664C27.096 23.0268 27.0711 22.9873 27.0455 22.9466C26.9869 22.8064 26.9964 22.7453 27.0443 22.6025C27.0962 22.5018 27.0962 22.5018 27.1634 22.3971C27.2029 22.3355 27.2029 22.3355 27.2431 22.2725C27.2876 22.2043 27.2876 22.2043 27.333 22.1348C27.3646 22.0859 27.3961 22.0371 27.4286 21.9868C27.8213 21.3815 28.2282 20.7855 28.6325 20.188C28.9403 19.733 29.2472 19.2778 29.5473 18.8177C29.5744 18.7763 29.6015 18.7348 29.6294 18.6921C29.7309 18.5356 29.8271 18.3825 29.9082 18.2144Z" fill="#8AD6F1"/>
<path d="M17.0664 30.5935C21.8679 30.5935 26.6694 30.5935 31.6165 30.5935C32.4661 32.6113 32.4661 32.6113 32.8434 33.541C32.9008 33.6822 32.9582 33.8233 33.0157 33.9645C33.0523 34.0545 33.0889 34.1446 33.1255 34.2347C33.209 34.4402 33.293 34.6455 33.3784 34.8502C33.3936 34.8868 33.4088 34.9234 33.4246 34.9611C33.4529 35.029 33.4813 35.0968 33.5099 35.1646C33.6027 35.3871 33.6027 35.3871 33.6027 35.4897C33.6636 35.505 33.7246 35.5202 33.7874 35.5359C33.7221 35.5659 33.6566 35.5957 33.5911 35.6254C33.5547 35.642 33.5182 35.6586 33.4807 35.6757C33.308 35.7469 33.1589 35.7726 32.9723 35.7731C32.9291 35.7733 32.886 35.7735 32.8415 35.7737C32.7705 35.7737 32.7705 35.7737 32.6982 35.7737C32.6478 35.7738 32.5975 35.774 32.5456 35.7742C32.3763 35.7747 32.207 35.7749 32.0377 35.775C31.9165 35.7753 31.7953 35.7756 31.6742 35.776C31.3101 35.7769 30.9461 35.7773 30.5821 35.7777C30.4105 35.7779 30.239 35.7782 30.0674 35.7784C29.4969 35.7792 28.9265 35.7799 28.356 35.7802C28.208 35.7803 28.06 35.7804 27.912 35.7805C27.8568 35.7805 27.8568 35.7805 27.8005 35.7806C27.205 35.7809 26.6095 35.7821 26.0139 35.7836C25.4021 35.7851 24.7903 35.786 24.1785 35.7861C23.8352 35.7862 23.4918 35.7866 23.1485 35.7878C22.856 35.7888 22.5635 35.7892 22.271 35.7887C22.1219 35.7885 21.9729 35.7887 21.8238 35.7895C21.6617 35.7903 21.4997 35.79 21.3377 35.7894C21.2911 35.7899 21.2445 35.7904 21.1966 35.7909C20.6063 35.7856 20.0628 35.5318 19.6381 35.1252C19.4151 34.8978 19.2633 34.6474 19.1119 34.3686C19.0656 34.2833 19.0185 34.1984 18.9711 34.1137C18.906 33.9972 18.8411 33.8805 18.7765 33.7638C18.6398 33.5174 18.4988 33.2735 18.3569 33.0301C18.331 32.9856 18.3051 32.9411 18.2784 32.8952C18.0531 32.5106 17.8175 32.1326 17.5773 31.7571C17.333 31.3725 17.1316 31.0495 17.0664 30.5935Z" fill="#8AD6F1"/>
<path d="M31.6162 30.5935C33.3844 30.5935 35.1526 30.5935 36.9743 30.5935C36.8267 31.0364 36.6531 31.3858 36.4027 31.7714C35.9978 32.4045 35.6245 33.0561 35.2544 33.7101C35.2213 33.7686 35.1881 33.827 35.155 33.8855C35.0914 33.9976 35.0282 34.1099 34.9653 34.2223C34.3687 35.2765 34.3687 35.2765 33.8796 35.4897C33.7872 35.4917 33.6948 35.4919 33.6024 35.4897C33.201 34.5434 32.8042 33.5954 32.4199 32.642C32.2828 32.3019 32.1449 31.9622 32.004 31.6238C31.9908 31.5922 31.9776 31.5606 31.9641 31.528C31.9023 31.3796 31.8403 31.2314 31.778 31.0833C31.7566 31.032 31.7352 30.9807 31.7131 30.9278C31.6943 30.8831 31.6755 30.8383 31.6561 30.7922C31.6162 30.6859 31.6162 30.6859 31.6162 30.5935Z" fill="#8AD6F1"/>
<path d="M17.0664 30.5935C18.8193 30.5935 20.5723 30.5935 22.3783 30.5935C22.0604 31.4413 22.0604 31.4413 21.9114 31.7981C21.8861 31.8591 21.8861 31.8591 21.8603 31.9213C21.806 32.0523 21.7515 32.1832 21.697 32.3141C21.6192 32.5012 21.5414 32.6883 21.4637 32.8754C21.4341 32.9468 21.4341 32.9468 21.4039 33.0195C21.2626 33.3608 21.1245 33.7033 20.9877 34.0464C20.9315 34.1868 20.8751 34.3272 20.8188 34.4676C20.7827 34.5579 20.7469 34.6484 20.7113 34.7389C20.6619 34.8647 20.6116 34.99 20.5612 35.1153C20.5395 35.1715 20.5395 35.1715 20.5174 35.2289C20.4755 35.3316 20.4755 35.3316 20.3921 35.4897C20.3005 35.5254 20.3005 35.5254 20.2074 35.5359C20.1114 35.4928 20.1114 35.4928 20.0111 35.4233C19.9621 35.3905 19.9621 35.3905 19.9122 35.3571C19.5612 35.0707 19.3328 34.7702 19.1154 34.3721C19.0686 34.2864 19.0211 34.2011 18.9733 34.1159C18.9077 33.9989 18.8424 33.8818 18.7772 33.7645C18.64 33.518 18.4989 33.2738 18.3569 33.0301C18.331 32.9856 18.3051 32.9411 18.2784 32.8953C18.0531 32.5106 17.8175 32.1326 17.5773 31.7571C17.333 31.3725 17.1316 31.0495 17.0664 30.5935Z" fill="#8AD6F1"/>
<path d="M24.9599 18.0118C25.0334 18.0114 25.0334 18.0114 25.1085 18.0111C25.2696 18.0105 25.4308 18.0109 25.592 18.0113C25.7045 18.0112 25.817 18.0111 25.9295 18.0109C26.1649 18.0107 26.4004 18.011 26.6358 18.0117C26.9371 18.0125 27.2384 18.012 27.5398 18.0112C27.772 18.0107 28.0042 18.0108 28.2364 18.0112C28.3475 18.0113 28.4586 18.0112 28.5696 18.0109C28.7251 18.0105 28.8805 18.011 29.0359 18.0118C29.0815 18.0115 29.1271 18.0112 29.1741 18.011C29.4503 18.0135 29.655 18.0559 29.9079 18.1683C29.8822 18.334 29.8424 18.4486 29.7496 18.5879C29.7261 18.6237 29.7025 18.6595 29.6782 18.6964C29.6395 18.754 29.6395 18.754 29.5999 18.8128C29.573 18.8535 29.5461 18.8942 29.5183 18.9361C29.4301 19.0692 29.3413 19.2019 29.2526 19.3346C29.1915 19.4265 29.1305 19.5184 29.0695 19.6104C28.9162 19.8411 28.7626 20.0716 28.6087 20.302C28.4801 20.4948 28.3517 20.6878 28.2234 20.8808C28.0398 21.1566 27.8562 21.4325 27.6717 21.7077C27.5732 21.8548 27.4755 22.0023 27.3785 22.1503C27.3469 22.1984 27.3469 22.1984 27.3147 22.2473C27.2741 22.3091 27.2336 22.371 27.1934 22.4329C27.0545 22.6436 27.0545 22.6436 26.9517 22.695C26.9379 22.6729 26.9241 22.6508 26.9099 22.6281C26.5426 22.0416 26.1639 21.4633 25.7796 20.8878C25.7564 20.853 25.7332 20.8182 25.7093 20.7823C25.4599 20.4086 25.2099 20.0354 24.9581 19.6633C24.8544 19.51 24.751 19.3565 24.6477 19.2029C24.598 19.1294 24.5483 19.056 24.4983 18.9826C24.429 18.8808 24.3601 18.7787 24.2914 18.6764C24.2707 18.6463 24.25 18.6161 24.2286 18.5851C24.1242 18.4286 24.0879 18.3621 24.0879 18.1683C24.3874 18.0352 24.6342 18.0098 24.9599 18.0118Z" fill="#8AD6F1"/>
</g>
<defs>
<filter id="filter0_b_850_778" x="-100" y="-100" width="254" height="254" filterUnits="userSpaceOnUse" color-interpolation-filters="sRGB">
<feFlood flood-opacity="0" result="BackgroundImageFix"/>
<feGaussianBlur in="BackgroundImageFix" stdDeviation="50"/>
<feComposite in2="SourceAlpha" operator="in" result="effect1_backgroundBlur_850_778"/>
<feBlend mode="normal" in="SourceGraphic" in2="effect1_backgroundBlur_850_778" result="shape"/>
</filter>
</defs>
</svg>
