<svg width="54" height="54" viewBox="0 0 54 54" fill="none" xmlns="http://www.w3.org/2000/svg">
<g filter="url(#filter0_b_850_764)">
<rect width="54" height="54" rx="6" fill="#FFC418" fill-opacity="0.1"/>
<path d="M28.667 22.8333V17.3833C29.4379 17.6744 30.1381 18.1261 30.7212 18.7083L33.6245 21.6133C34.2074 22.1957 34.6594 22.8957 34.9503 23.6667H29.5003C29.2793 23.6667 29.0674 23.5789 28.9111 23.4226C28.7548 23.2663 28.667 23.0543 28.667 22.8333ZM35.3337 25.7375V32.8333C35.3323 33.938 34.8929 34.997 34.1118 35.7782C33.3307 36.5593 32.2717 36.9987 31.167 37H22.8337C21.729 36.9987 20.67 36.5593 19.8888 35.7782C19.1077 34.997 18.6683 33.938 18.667 32.8333V21.1667C18.6683 20.062 19.1077 19.003 19.8888 18.2218C20.67 17.4407 21.729 17.0013 22.8337 17H26.5962C26.732 17 26.8662 17.0108 27.0003 17.02V22.8333C27.0003 23.4964 27.2637 24.1323 27.7326 24.6011C28.2014 25.0699 28.8373 25.3333 29.5003 25.3333H35.3137C35.3228 25.4675 35.3337 25.6017 35.3337 25.7375ZM28.667 32.8333C28.667 32.6123 28.5792 32.4004 28.4229 32.2441C28.2666 32.0878 28.0547 32 27.8337 32H23.667C23.446 32 23.234 32.0878 23.0777 32.2441C22.9215 32.4004 22.8337 32.6123 22.8337 32.8333C22.8337 33.0543 22.9215 33.2663 23.0777 33.4226C23.234 33.5789 23.446 33.6667 23.667 33.6667H27.8337C28.0547 33.6667 28.2666 33.5789 28.4229 33.4226C28.5792 33.2663 28.667 33.0543 28.667 32.8333ZM31.167 29.5C31.167 29.279 31.0792 29.067 30.9229 28.9107C30.7666 28.7545 30.5547 28.6667 30.3337 28.6667H23.667C23.446 28.6667 23.234 28.7545 23.0777 28.9107C22.9215 29.067 22.8337 29.279 22.8337 29.5C22.8337 29.721 22.9215 29.933 23.0777 30.0893C23.234 30.2455 23.446 30.3333 23.667 30.3333H30.3337C30.5547 30.3333 30.7666 30.2455 30.9229 30.0893C31.0792 29.933 31.167 29.721 31.167 29.5Z" fill="#FFC418"/>
</g>
<defs>
<filter id="filter0_b_850_764" x="-100" y="-100" width="254" height="254" filterUnits="userSpaceOnUse" color-interpolation-filters="sRGB">
<feFlood flood-opacity="0" result="BackgroundImageFix"/>
<feGaussianBlur in="BackgroundImageFix" stdDeviation="50"/>
<feComposite in2="SourceAlpha" operator="in" result="effect1_backgroundBlur_850_764"/>
<feBlend mode="normal" in="SourceGraphic" in2="effect1_backgroundBlur_850_764" result="shape"/>
</filter>
</defs>
</svg>
