<svg width="36" height="36" viewBox="0 0 36 36" fill="none" xmlns="http://www.w3.org/2000/svg">
<rect width="36" height="36" rx="4" fill="#2FB3E3" fill-opacity="0.1"/>
<path d="M25.8806 17.454C25.2952 16.174 22.9999 12 17.9999 12C12.9999 12 10.7046 16.174 10.1192 17.454C10.0407 17.6255 10 17.812 10 18.0007C10 18.1893 10.0407 18.3758 10.1192 18.5473C10.7046 19.826 12.9999 24 17.9999 24C22.9999 24 25.2952 19.826 25.8806 18.546C25.959 18.3747 25.9996 18.1884 25.9996 18C25.9996 17.8116 25.959 17.6253 25.8806 17.454ZM17.9999 22.6667C13.7952 22.6667 11.8332 19.0893 11.3332 18.0073C11.8332 16.9107 13.7952 13.3333 17.9999 13.3333C22.1946 13.3333 24.1572 16.8953 24.6666 18C24.1572 19.1047 22.1946 22.6667 17.9999 22.6667Z" fill="#2FB3E3"/>
<path d="M18.0003 14.6665C17.3411 14.6665 16.6966 14.862 16.1484 15.2283C15.6003 15.5945 15.173 16.1151 14.9207 16.7242C14.6684 17.3333 14.6024 18.0035 14.731 18.6501C14.8597 19.2967 15.1771 19.8907 15.6433 20.3569C16.1095 20.823 16.7034 21.1405 17.35 21.2691C17.9966 21.3977 18.6669 21.3317 19.2759 21.0794C19.885 20.8271 20.4056 20.3999 20.7719 19.8517C21.1382 19.3036 21.3337 18.6591 21.3337 17.9998C21.3326 17.1161 20.9811 16.2689 20.3562 15.644C19.7313 15.0191 18.8841 14.6676 18.0003 14.6665ZM18.0003 19.9998C17.6048 19.9998 17.2181 19.8825 16.8892 19.6628C16.5603 19.443 16.3039 19.1307 16.1526 18.7652C16.0012 18.3998 15.9616 17.9976 16.0388 17.6097C16.1159 17.2217 16.3064 16.8653 16.5861 16.5856C16.8658 16.3059 17.2222 16.1154 17.6101 16.0383C17.9981 15.9611 18.4002 16.0007 18.7657 16.1521C19.1311 16.3035 19.4435 16.5598 19.6633 16.8887C19.883 17.2176 20.0003 17.6043 20.0003 17.9998C20.0003 18.5303 19.7896 19.039 19.4145 19.4141C19.0395 19.7891 18.5308 19.9998 18.0003 19.9998Z" fill="#2FB3E3"/>
</svg>
