<svg width="28" height="32" viewBox="0 0 28 32" fill="none" xmlns="http://www.w3.org/2000/svg">
<path d="M15.643 20.8841L15.065 31.3867L15.0351 31.9502C14.1886 31.8298 13.3742 31.5297 12.6617 31.0647L2.62136 24.523C1.7719 23.9687 1.08024 23.1981 0.62311 22.2953C0.16615 21.3957 -0.0465963 20.3857 0.00853608 19.3752L0.66407 7.42759C0.712116 6.57747 0.949418 5.74373 1.35505 4.99243L10.6508 11.0507L10.5153 13.5347C10.4465 14.706 10.6932 15.8821 11.2281 16.9348C11.763 17.9907 12.5699 18.8855 13.5561 19.5259L15.643 20.8841Z" fill="#2FB3E3"/>
<path d="M27.992 11.6961C27.992 11.6961 27.5021 20.5993 27.3393 23.6121C27.1963 23.9853 26.0797 25.0579 24.4974 26.4295L25.0571 12.1397C25.1131 10.739 24.4518 9.43632 23.287 8.65053L11.4072 0.643279C13.4561 0.180533 14.978 -0.0797347 15.3641 0.0218522C17.8966 1.67587 25.3758 6.54515 25.3789 6.54515C26.2283 7.09965 26.92 7.87009 27.3771 8.77282C27.8344 9.67244 28.0472 10.6855 27.992 11.6961Z" fill="#2FB3E3"/>
<path d="M20.5377 13.0114L19.8618 30.2504C19.3754 30.6378 18.8827 31.0223 18.3964 31.4001C17.6451 31.7723 16.819 31.979 15.9775 32.0002L16.9498 14.3072C16.96 14.1402 16.8789 13.9779 16.7358 13.8855L1.86963 4.20227C2.38673 3.54066 3.04123 2.99686 3.78612 2.61207C4.37962 2.44339 4.98245 2.27764 5.58233 2.11206L19.9093 11.7713C20.3224 12.0486 20.559 12.5139 20.5377 13.0114Z" fill="#2FB3E3"/>
<path d="M24.1132 12.1026L23.5185 27.2675C22.6929 27.9679 21.783 28.7137 20.8416 29.4722L21.4849 13.0482C21.5173 12.2204 21.1252 11.452 20.4379 10.9867L6.79199 1.78658C7.9572 1.47768 9.10065 1.1881 10.1532 0.9375L22.7584 9.43475C23.6494 10.0327 24.1551 11.0324 24.1132 12.1026Z" fill="#2FB3E3"/>
</svg>
