<svg width="60" height="58" viewBox="0 0 60 58" fill="none" xmlns="http://www.w3.org/2000/svg">
<rect width="60" height="58" rx="5" fill="#E84949" fill-opacity="0.2"/>
<path d="M23.0498 40C22.466 40 21.9786 39.8118 21.5877 39.4353C21.1959 39.0581 21 38.5883 21 38.0261V19.9739C21 19.4117 21.1959 18.9423 21.5877 18.5659C21.9786 18.1886 22.466 18 23.0498 18H33.0577L38.7692 23.5V38.0261C38.7692 38.5883 38.5738 39.0577 38.1828 39.4341C37.7911 39.8114 37.3033 40 36.7194 40H23.0498ZM24.7595 36.6144H35.0098C34.9429 35.8102 34.6912 35.0716 34.2546 34.3986C33.818 33.7247 33.2367 33.1906 32.5107 32.7962L33.4854 31.1181C33.5193 31.0521 33.5214 30.98 33.4918 30.9018C33.463 30.8236 33.4093 30.7641 33.3306 30.7233C33.2671 30.6826 33.2003 30.6724 33.13 30.6928C33.059 30.7131 33.0061 30.7559 32.9714 30.8211L31.9662 32.5371C31.6412 32.4059 31.3049 32.3061 30.9571 32.2377C30.6093 32.1692 30.2531 32.135 29.8884 32.135C29.5229 32.135 29.1692 32.1704 28.8273 32.2413C28.4855 32.3122 28.1441 32.4108 27.8031 32.5371L26.8093 30.8211C26.767 30.751 26.7065 30.7083 26.6278 30.6928C26.5482 30.6765 26.4721 30.6887 26.3993 30.7294C26.3824 30.7294 26.3485 30.859 26.2978 31.1181L27.2827 32.7962C26.5618 33.1906 25.9779 33.7243 25.5312 34.3973C25.0852 35.0712 24.828 35.8106 24.7595 36.6157M27.5898 35.1343C27.4536 35.1343 27.3343 35.0854 27.2319 34.9877C27.1287 34.8883 27.0771 34.7726 27.0771 34.6406C27.0771 34.5094 27.1287 34.3945 27.2319 34.2959C27.3335 34.1973 27.4528 34.148 27.5898 34.148C27.7269 34.148 27.8424 34.1969 27.9363 34.2947C28.0311 34.3941 28.0785 34.5094 28.0785 34.6406C28.0785 34.7726 28.0298 34.8879 27.9325 34.9864C27.8344 35.085 27.7202 35.1343 27.5898 35.1343ZM32.2035 35.1343C32.0664 35.1343 31.9467 35.0854 31.8443 34.9877C31.7419 34.8899 31.6912 34.7742 31.692 34.6406C31.692 34.5094 31.7428 34.3945 31.8443 34.2959C31.9458 34.1973 32.0656 34.148 32.2035 34.148C32.3397 34.148 32.4552 34.1969 32.55 34.2947C32.6448 34.3941 32.6922 34.5094 32.6922 34.6406C32.6922 34.7726 32.6431 34.8879 32.5449 34.9864C32.4476 35.085 32.3347 35.1343 32.2035 35.1343ZM32.4231 24.1111H37.5L32.4231 19.2222V24.1111Z" fill="#E84949"/>
</svg>
