<svg width="22" height="22" viewBox="0 0 22 22" fill="none" xmlns="http://www.w3.org/2000/svg">
<path d="M17.4163 7.722V6.41665C17.4163 2.87285 14.5435 0 10.9997 0C7.45581 0 4.58301 2.87285 4.58301 6.41665V7.722C2.9147 8.45011 1.83541 10.0964 1.83301 11.9167V17.4167C1.83602 19.9467 3.88627 21.997 6.41631 22H15.583C18.113 21.997 20.1633 19.9467 20.1663 17.4167V11.9167C20.1639 10.0964 19.0846 8.45011 17.4163 7.722ZM11.9163 15.5833C11.9163 16.0896 11.5059 16.5 10.9997 16.5C10.4934 16.5 10.083 16.0896 10.083 15.5833V13.75C10.083 13.2437 10.4934 12.8333 10.9997 12.8333C11.5059 12.8333 11.9163 13.2437 11.9163 13.75V15.5833ZM15.583 7.33335H6.41631V6.4167C6.41631 3.88541 8.46833 1.83335 10.9997 1.83335C13.531 1.83335 15.583 3.88536 15.583 6.4167V7.33335Z" fill="white"/>
</svg>
