<svg width="625" height="107" viewBox="0 0 625 107" fill="none" xmlns="http://www.w3.org/2000/svg">
<rect width="264" height="107" rx="10" fill="#142A37"/>
<g filter="url(#filter0_b_1013_13)">
<rect x="19" y="26.5" width="54" height="54" rx="6" fill="#FFC418" fill-opacity="0.1"/>
<g clip-path="url(#clip0_1013_13)">
<path d="M47.667 49.3333V43.8833C48.4379 44.1744 49.1381 44.6261 49.7212 45.2083L52.6245 48.1133C53.2074 48.6957 53.6594 49.3957 53.9503 50.1667H48.5003C48.2793 50.1667 48.0674 50.0789 47.9111 49.9226C47.7548 49.7663 47.667 49.5543 47.667 49.3333ZM54.3337 52.2375V59.3333C54.3323 60.438 53.8929 61.497 53.1118 62.2782C52.3307 63.0593 51.2717 63.4987 50.167 63.5H41.8337C40.729 63.4987 39.67 63.0593 38.8888 62.2782C38.1077 61.497 37.6683 60.438 37.667 59.3333V47.6667C37.6683 46.562 38.1077 45.503 38.8888 44.7218C39.67 43.9407 40.729 43.5013 41.8337 43.5H45.5962C45.732 43.5 45.8662 43.5108 46.0003 43.52V49.3333C46.0003 49.9964 46.2637 50.6323 46.7326 51.1011C47.2014 51.5699 47.8373 51.8333 48.5003 51.8333H54.3137C54.3228 51.9675 54.3337 52.1017 54.3337 52.2375ZM47.667 59.3333C47.667 59.1123 47.5792 58.9004 47.4229 58.7441C47.2666 58.5878 47.0547 58.5 46.8337 58.5H42.667C42.446 58.5 42.234 58.5878 42.0777 58.7441C41.9215 58.9004 41.8337 59.1123 41.8337 59.3333C41.8337 59.5543 41.9215 59.7663 42.0777 59.9226C42.234 60.0789 42.446 60.1667 42.667 60.1667H46.8337C47.0547 60.1667 47.2666 60.0789 47.4229 59.9226C47.5792 59.7663 47.667 59.5543 47.667 59.3333ZM50.167 56C50.167 55.779 50.0792 55.567 49.9229 55.4107C49.7666 55.2545 49.5547 55.1667 49.3337 55.1667H42.667C42.446 55.1667 42.234 55.2545 42.0777 55.4107C41.9215 55.567 41.8337 55.779 41.8337 56C41.8337 56.221 41.9215 56.433 42.0777 56.5893C42.234 56.7455 42.446 56.8333 42.667 56.8333H49.3337C49.5547 56.8333 49.7666 56.7455 49.9229 56.5893C50.0792 56.433 50.167 56.221 50.167 56Z" fill="#FFC418"/>
</g>
</g>
<path d="M92.02 42V30.1H95.9555C96.7772 30.1 97.5478 30.2558 98.2675 30.5675C98.9872 30.8735 99.619 31.3013 100.163 31.851C100.707 32.395 101.132 33.0268 101.438 33.7465C101.75 34.4605 101.906 35.2283 101.906 36.05C101.906 36.8717 101.75 37.6423 101.438 38.362C101.132 39.076 100.707 39.7078 100.163 40.2575C99.619 40.8015 98.9872 41.2293 98.2675 41.541C97.5478 41.847 96.7772 42 95.9555 42H92.02ZM93.448 40.572H95.9555C96.5788 40.572 97.1625 40.4558 97.7065 40.2235C98.2562 39.9855 98.7378 39.6597 99.1515 39.246C99.5652 38.8323 99.8882 38.3535 100.121 37.8095C100.359 37.2598 100.478 36.6733 100.478 36.05C100.478 35.4267 100.359 34.843 100.121 34.299C99.8882 33.7493 99.5623 33.2677 99.143 32.854C98.7293 32.4403 98.2505 32.1173 97.7065 31.885C97.1625 31.647 96.5788 31.528 95.9555 31.528H93.448V40.572ZM107.032 42.221C106.25 42.221 105.536 42.0198 104.89 41.6175C104.25 41.2152 103.737 40.6768 103.352 40.0025C102.972 39.3225 102.782 38.5717 102.782 37.75C102.782 37.1267 102.893 36.5458 103.114 36.0075C103.335 35.4635 103.638 34.9875 104.023 34.5795C104.414 34.1658 104.868 33.8428 105.383 33.6105C105.899 33.3782 106.449 33.262 107.032 33.262C107.814 33.262 108.526 33.4632 109.166 33.8655C109.812 34.2678 110.325 34.809 110.704 35.489C111.09 36.169 111.282 36.9227 111.282 37.75C111.282 38.3677 111.172 38.9457 110.951 39.484C110.73 40.0223 110.424 40.4983 110.033 40.912C109.648 41.32 109.197 41.6402 108.681 41.8725C108.171 42.1048 107.622 42.221 107.032 42.221ZM107.032 40.793C107.565 40.793 108.044 40.6542 108.469 40.3765C108.9 40.0932 109.237 39.722 109.48 39.263C109.73 38.7983 109.854 38.294 109.854 37.75C109.854 37.1947 109.727 36.6847 109.472 36.22C109.223 35.7553 108.885 35.3842 108.46 35.1065C108.035 34.8288 107.559 34.69 107.032 34.69C106.5 34.69 106.021 34.8317 105.596 35.115C105.171 35.3927 104.834 35.7638 104.584 36.2285C104.335 36.6932 104.21 37.2003 104.21 37.75C104.21 38.3167 104.338 38.8323 104.593 39.297C104.848 39.756 105.191 40.1215 105.621 40.3935C106.052 40.6598 106.522 40.793 107.032 40.793ZM118.496 39.756L119.771 40.4445C119.385 40.9828 118.895 41.4135 118.3 41.7365C117.711 42.0595 117.07 42.221 116.379 42.221C115.597 42.221 114.883 42.0198 114.237 41.6175C113.597 41.2152 113.084 40.6768 112.699 40.0025C112.319 39.3225 112.129 38.5717 112.129 37.75C112.129 37.1267 112.24 36.5458 112.461 36.0075C112.682 35.4635 112.985 34.9875 113.37 34.5795C113.761 34.1658 114.214 33.8428 114.73 33.6105C115.246 33.3782 115.795 33.262 116.379 33.262C117.07 33.262 117.711 33.4235 118.3 33.7465C118.895 34.0695 119.385 34.503 119.771 35.047L118.496 35.7355C118.224 35.4012 117.901 35.1433 117.527 34.962C117.153 34.7807 116.77 34.69 116.379 34.69C115.852 34.69 115.373 34.8317 114.943 35.115C114.518 35.3927 114.18 35.7638 113.931 36.2285C113.682 36.6932 113.557 37.2003 113.557 37.75C113.557 38.2997 113.682 38.8068 113.931 39.2715C114.186 39.7305 114.526 40.0988 114.951 40.3765C115.382 40.6542 115.858 40.793 116.379 40.793C116.798 40.793 117.192 40.6967 117.561 40.504C117.929 40.3113 118.241 40.062 118.496 39.756ZM120.849 38.77V33.5H122.277V38.4555C122.277 38.8862 122.382 39.2772 122.591 39.6285C122.801 39.9798 123.082 40.2603 123.433 40.47C123.79 40.674 124.181 40.776 124.606 40.776C125.037 40.776 125.425 40.674 125.77 40.47C126.122 40.2603 126.402 39.9798 126.612 39.6285C126.822 39.2772 126.926 38.8862 126.926 38.4555V33.5H128.354L128.363 42H126.935L126.926 40.9205C126.626 41.3172 126.246 41.6345 125.787 41.8725C125.328 42.1048 124.833 42.221 124.3 42.221C123.665 42.221 123.084 42.068 122.557 41.762C122.036 41.4503 121.62 41.0338 121.308 40.5125C121.002 39.9912 120.849 39.4103 120.849 38.77ZM130.071 42V33.5H131.499V34.5625C131.799 34.1658 132.176 33.8513 132.629 33.619C133.088 33.381 133.587 33.262 134.125 33.262C134.754 33.262 135.329 33.415 135.851 33.721C136.372 34.027 136.783 34.4322 137.083 34.9365C137.384 34.4322 137.792 34.027 138.307 33.721C138.829 33.415 139.401 33.262 140.024 33.262C140.665 33.262 141.245 33.4178 141.767 33.7295C142.288 34.0355 142.702 34.4492 143.008 34.9705C143.319 35.4918 143.475 36.0727 143.475 36.713V42H142.047V37.053C142.047 36.6337 141.945 36.2455 141.741 35.8885C141.537 35.5315 141.262 35.2453 140.917 35.03C140.571 34.8147 140.189 34.707 139.769 34.707C139.35 34.707 138.967 34.809 138.622 35.013C138.276 35.2113 138.001 35.489 137.797 35.846C137.593 36.1973 137.491 36.5997 137.491 37.053V42H136.063V37.053C136.063 36.5997 135.961 36.1973 135.757 35.846C135.553 35.489 135.276 35.2113 134.924 35.013C134.579 34.809 134.196 34.707 133.777 34.707C133.363 34.707 132.981 34.8147 132.629 35.03C132.284 35.2453 132.009 35.5315 131.805 35.8885C131.601 36.2455 131.499 36.6337 131.499 37.053V42H130.071ZM148.752 42.221C147.97 42.221 147.256 42.0198 146.61 41.6175C145.97 41.2152 145.457 40.6768 145.072 40.0025C144.692 39.3225 144.502 38.5717 144.502 37.75C144.502 37.1267 144.613 36.5458 144.834 36.0075C145.055 35.4635 145.358 34.9875 145.743 34.5795C146.134 34.1658 146.588 33.8428 147.103 33.6105C147.619 33.3782 148.169 33.262 148.752 33.262C149.393 33.262 149.979 33.3923 150.512 33.653C151.05 33.908 151.509 34.265 151.889 34.724C152.274 35.183 152.56 35.7157 152.747 36.322C152.94 36.9283 153.011 37.5772 152.96 38.2685H146.024C146.092 38.7502 146.25 39.1808 146.5 39.5605C146.749 39.9345 147.066 40.232 147.452 40.453C147.843 40.674 148.276 40.7873 148.752 40.793C149.262 40.793 149.724 40.6627 150.138 40.402C150.551 40.1357 150.886 39.773 151.141 39.314L152.594 39.654C152.254 40.4077 151.741 41.0253 151.056 41.507C150.37 41.983 149.602 42.221 148.752 42.221ZM145.981 37.1465H151.523C151.478 36.6705 151.325 36.237 151.064 35.846C150.804 35.4493 150.472 35.132 150.07 34.894C149.667 34.656 149.228 34.537 148.752 34.537C148.276 34.537 147.84 34.6532 147.443 34.8855C147.047 35.1178 146.718 35.4323 146.457 35.829C146.202 36.22 146.044 36.6592 145.981 37.1465ZM161.906 36.713V42H160.478V37.0275C160.478 36.5968 160.373 36.2058 160.164 35.8545C159.954 35.5032 159.673 35.2255 159.322 35.0215C158.971 34.8118 158.58 34.707 158.149 34.707C157.724 34.707 157.333 34.8118 156.976 35.0215C156.625 35.2255 156.344 35.5032 156.135 35.8545C155.925 36.2058 155.82 36.5968 155.82 37.0275V42H154.392V33.5H155.82V34.5625C156.12 34.1658 156.5 33.8513 156.959 33.619C157.418 33.381 157.917 33.262 158.455 33.262C159.09 33.262 159.668 33.4178 160.189 33.7295C160.716 34.0355 161.133 34.4492 161.439 34.9705C161.75 35.4918 161.906 36.0727 161.906 36.713ZM168.009 34.928H166.079L166.071 42H164.643L164.651 34.928H163.189V33.5H164.651L164.643 30.831H166.071L166.079 33.5H168.009V34.928ZM172.042 42.1615C171.583 42.1445 171.136 42.0595 170.699 41.9065C170.269 41.7478 169.889 41.5353 169.56 41.269C169.237 40.997 169.002 40.6853 168.855 40.334L170.079 39.807C170.164 39.9997 170.317 40.181 170.538 40.351C170.759 40.521 171.014 40.657 171.303 40.759C171.592 40.861 171.884 40.912 172.178 40.912C172.49 40.912 172.782 40.8638 173.054 40.7675C173.326 40.6712 173.547 40.5295 173.717 40.3425C173.892 40.1498 173.98 39.9203 173.98 39.654C173.98 39.3707 173.884 39.1497 173.691 38.991C173.504 38.8267 173.266 38.6992 172.977 38.6085C172.694 38.5122 172.405 38.4215 172.11 38.3365C171.527 38.1892 171.005 38.0135 170.546 37.8095C170.087 37.5998 169.725 37.3363 169.458 37.019C169.198 36.696 169.067 36.2852 169.067 35.7865C169.067 35.2595 169.212 34.8033 169.501 34.418C169.795 34.0327 170.181 33.7352 170.657 33.5255C171.133 33.3158 171.643 33.211 172.187 33.211C172.872 33.211 173.499 33.3583 174.065 33.653C174.632 33.9477 175.054 34.3472 175.332 34.8515L174.184 35.523C174.088 35.319 173.941 35.1405 173.742 34.9875C173.544 34.8288 173.317 34.7042 173.062 34.6135C172.807 34.5228 172.547 34.4747 172.28 34.469C171.952 34.4577 171.643 34.5002 171.354 34.5965C171.07 34.6928 170.841 34.8402 170.665 35.0385C170.495 35.2312 170.41 35.472 170.41 35.761C170.41 36.0443 170.501 36.2597 170.682 36.407C170.869 36.5543 171.11 36.6733 171.405 36.764C171.705 36.849 172.031 36.9482 172.382 37.0615C172.898 37.2258 173.38 37.4157 173.827 37.631C174.275 37.8463 174.635 38.1155 174.907 38.4385C175.184 38.7615 175.32 39.161 175.315 39.637C175.315 40.1583 175.159 40.6145 174.847 41.0055C174.536 41.3908 174.13 41.6855 173.632 41.8895C173.139 42.0935 172.609 42.1842 172.042 42.1615Z" fill="white"/>
<rect x="91" y="58" width="154" height="3" rx="1.5" fill="white" fill-opacity="0.1"/>
<rect x="91" y="58" width="89.7483" height="3" rx="1.5" fill="#FFC418"/>
<path d="M91.48 78V77.106C91.788 76.83 92.134 76.522 92.518 76.182C92.902 75.838 93.284 75.48 93.664 75.108C94.048 74.732 94.4 74.36 94.72 73.992C95.04 73.624 95.298 73.276 95.494 72.948C95.69 72.616 95.788 72.326 95.788 72.078C95.788 71.782 95.716 71.512 95.572 71.268C95.428 71.02 95.234 70.822 94.99 70.674C94.75 70.526 94.482 70.452 94.186 70.452C93.89 70.452 93.618 70.526 93.37 70.674C93.126 70.822 92.93 71.02 92.782 71.268C92.638 71.512 92.566 71.782 92.566 72.078H91.558C91.558 71.586 91.678 71.142 91.918 70.746C92.158 70.346 92.476 70.03 92.872 69.798C93.268 69.562 93.706 69.444 94.186 69.444C94.666 69.444 95.102 69.562 95.494 69.798C95.89 70.034 96.206 70.352 96.442 70.752C96.678 71.148 96.796 71.59 96.796 72.078C96.796 72.358 96.728 72.66 96.592 72.984C96.456 73.304 96.27 73.634 96.034 73.974C95.798 74.314 95.53 74.658 95.23 75.006C94.93 75.35 94.614 75.69 94.282 76.026C93.95 76.362 93.62 76.684 93.292 76.992H96.904V78H91.48ZM100.91 78.156C100.41 78.156 99.9624 78.044 99.5664 77.82C99.1704 77.592 98.8304 77.278 98.5464 76.878C98.2624 76.478 98.0464 76.016 97.8984 75.492C97.7504 74.964 97.6764 74.4 97.6764 73.8C97.6764 73.2 97.7504 72.636 97.8984 72.108C98.0464 71.58 98.2624 71.118 98.5464 70.722C98.8304 70.322 99.1704 70.01 99.5664 69.786C99.9624 69.558 100.41 69.444 100.91 69.444C101.406 69.444 101.852 69.558 102.248 69.786C102.648 70.01 102.986 70.322 103.262 70.722C103.542 71.118 103.756 71.58 103.904 72.108C104.056 72.636 104.132 73.2 104.132 73.8C104.132 74.4 104.056 74.964 103.904 75.492C103.756 76.016 103.542 76.478 103.262 76.878C102.986 77.278 102.648 77.592 102.248 77.82C101.852 78.044 101.406 78.156 100.91 78.156ZM100.91 77.148C101.41 77.148 101.828 76.994 102.164 76.686C102.504 76.374 102.758 75.964 102.926 75.456C103.094 74.948 103.178 74.396 103.178 73.8C103.178 73.172 103.09 72.606 102.914 72.102C102.742 71.594 102.486 71.192 102.146 70.896C101.81 70.6 101.398 70.452 100.91 70.452C100.526 70.452 100.19 70.542 99.9024 70.722C99.6184 70.902 99.3824 71.148 99.1944 71.46C99.0064 71.772 98.8644 72.13 98.7684 72.534C98.6764 72.934 98.6304 73.356 98.6304 73.8C98.6304 74.396 98.7164 74.95 98.8884 75.462C99.0604 75.97 99.3144 76.378 99.6504 76.686C99.9904 76.994 100.41 77.148 100.91 77.148ZM107.918 78.156C107.418 78.156 106.97 78.044 106.574 77.82C106.178 77.592 105.838 77.278 105.554 76.878C105.27 76.478 105.054 76.016 104.906 75.492C104.758 74.964 104.684 74.4 104.684 73.8C104.684 73.2 104.758 72.636 104.906 72.108C105.054 71.58 105.27 71.118 105.554 70.722C105.838 70.322 106.178 70.01 106.574 69.786C106.97 69.558 107.418 69.444 107.918 69.444C108.414 69.444 108.86 69.558 109.256 69.786C109.656 70.01 109.994 70.322 110.27 70.722C110.55 71.118 110.764 71.58 110.912 72.108C111.064 72.636 111.14 73.2 111.14 73.8C111.14 74.4 111.064 74.964 110.912 75.492C110.764 76.016 110.55 76.478 110.27 76.878C109.994 77.278 109.656 77.592 109.256 77.82C108.86 78.044 108.414 78.156 107.918 78.156ZM107.918 77.148C108.418 77.148 108.836 76.994 109.172 76.686C109.512 76.374 109.766 75.964 109.934 75.456C110.102 74.948 110.186 74.396 110.186 73.8C110.186 73.172 110.098 72.606 109.922 72.102C109.75 71.594 109.494 71.192 109.154 70.896C108.818 70.6 108.406 70.452 107.918 70.452C107.534 70.452 107.198 70.542 106.91 70.722C106.626 70.902 106.39 71.148 106.202 71.46C106.014 71.772 105.872 72.13 105.776 72.534C105.684 72.934 105.638 73.356 105.638 73.8C105.638 74.396 105.724 74.95 105.896 75.462C106.068 75.97 106.322 76.378 106.658 76.686C106.998 76.994 107.418 77.148 107.918 77.148ZM115.099 78V69.6H120.025V70.608H116.107V72.996H119.449V74.004H116.107V78H115.099ZM120.536 72H121.544V78H120.536V72ZM121.052 71.022C120.892 71.022 120.758 70.97 120.65 70.866C120.542 70.762 120.488 70.632 120.488 70.476C120.488 70.32 120.542 70.19 120.65 70.086C120.758 69.982 120.89 69.93 121.046 69.93C121.202 69.93 121.334 69.982 121.442 70.086C121.55 70.19 121.604 70.32 121.604 70.476C121.604 70.632 121.55 70.762 121.442 70.866C121.338 70.97 121.208 71.022 121.052 71.022ZM123.021 78V69H124.029V78H123.021ZM128.051 78.156C127.499 78.156 126.995 78.014 126.539 77.73C126.087 77.446 125.725 77.066 125.453 76.59C125.185 76.11 125.051 75.58 125.051 75C125.051 74.56 125.129 74.15 125.285 73.77C125.441 73.386 125.655 73.05 125.927 72.762C126.203 72.47 126.523 72.242 126.887 72.078C127.251 71.914 127.639 71.832 128.051 71.832C128.503 71.832 128.917 71.924 129.293 72.108C129.673 72.288 129.997 72.54 130.265 72.864C130.537 73.188 130.739 73.564 130.871 73.992C131.007 74.42 131.057 74.878 131.021 75.366H126.125C126.173 75.706 126.285 76.01 126.461 76.278C126.637 76.542 126.861 76.752 127.133 76.908C127.409 77.064 127.715 77.144 128.051 77.148C128.411 77.148 128.737 77.056 129.029 76.872C129.321 76.684 129.557 76.428 129.737 76.104L130.763 76.344C130.523 76.876 130.161 77.312 129.677 77.652C129.193 77.988 128.651 78.156 128.051 78.156ZM126.095 74.574H130.007C129.975 74.238 129.867 73.932 129.683 73.656C129.499 73.376 129.265 73.152 128.981 72.984C128.697 72.816 128.387 72.732 128.051 72.732C127.715 72.732 127.407 72.814 127.127 72.978C126.847 73.142 126.615 73.364 126.431 73.644C126.251 73.92 126.139 74.23 126.095 74.574Z" fill="white" fill-opacity="0.6"/>
<path d="M212.482 78V70.848H211.48L211.822 69.6H213.73V78H212.482ZM217.949 78.156C217.417 78.156 216.935 78.028 216.503 77.772C216.075 77.512 215.735 77.168 215.483 76.74C215.235 76.308 215.111 75.836 215.111 75.324H216.359C216.359 75.616 216.431 75.882 216.575 76.122C216.719 76.362 216.911 76.554 217.151 76.698C217.391 76.838 217.657 76.908 217.949 76.908C218.237 76.908 218.501 76.838 218.741 76.698C218.981 76.554 219.173 76.362 219.317 76.122C219.461 75.882 219.533 75.616 219.533 75.324C219.533 75.032 219.467 74.766 219.335 74.526C219.203 74.282 219.005 74.088 218.741 73.944C218.477 73.796 218.141 73.722 217.733 73.722H215.615L216.467 69.6H220.529V70.848H217.481L217.151 72.474L217.877 72.486C218.449 72.498 218.951 72.63 219.383 72.882C219.819 73.13 220.161 73.466 220.409 73.89C220.657 74.31 220.781 74.788 220.781 75.324C220.781 75.712 220.707 76.078 220.559 76.422C220.411 76.762 220.207 77.062 219.947 77.322C219.691 77.582 219.391 77.786 219.047 77.934C218.707 78.082 218.341 78.156 217.949 78.156ZM224.755 78.156C224.259 78.156 223.811 78.044 223.411 77.82C223.015 77.592 222.673 77.278 222.385 76.878C222.097 76.478 221.877 76.016 221.725 75.492C221.573 74.964 221.497 74.4 221.497 73.8C221.497 73.2 221.573 72.636 221.725 72.108C221.877 71.58 222.097 71.118 222.385 70.722C222.673 70.322 223.015 70.01 223.411 69.786C223.811 69.558 224.259 69.444 224.755 69.444C225.243 69.444 225.687 69.558 226.087 69.786C226.487 70.01 226.827 70.322 227.107 70.722C227.391 71.118 227.609 71.58 227.761 72.108C227.913 72.636 227.989 73.2 227.989 73.8C227.989 74.4 227.913 74.964 227.761 75.492C227.609 76.016 227.391 76.478 227.107 76.878C226.827 77.278 226.487 77.592 226.087 77.82C225.687 78.044 225.243 78.156 224.755 78.156ZM224.755 76.908C225.215 76.908 225.597 76.764 225.901 76.476C226.209 76.184 226.439 75.802 226.591 75.33C226.743 74.858 226.819 74.348 226.819 73.8C226.819 73.224 226.739 72.702 226.579 72.234C226.423 71.762 226.191 71.388 225.883 71.112C225.579 70.832 225.203 70.692 224.755 70.692C224.399 70.692 224.089 70.776 223.825 70.944C223.565 71.112 223.349 71.342 223.177 71.634C223.009 71.926 222.881 72.258 222.793 72.63C222.709 73.002 222.667 73.392 222.667 73.8C222.667 74.348 222.745 74.858 222.901 75.33C223.057 75.802 223.289 76.184 223.597 76.476C223.909 76.764 224.295 76.908 224.755 76.908ZM232.958 78.156C232.374 78.156 231.83 78.044 231.326 77.82C230.826 77.592 230.388 77.278 230.012 76.878C229.64 76.474 229.348 76.008 229.136 75.48C228.928 74.952 228.824 74.39 228.824 73.794C228.824 73.166 228.936 72.588 229.16 72.06C229.384 71.532 229.69 71.074 230.078 70.686C230.466 70.294 230.908 69.99 231.404 69.774C231.904 69.558 232.428 69.45 232.976 69.45C233.596 69.45 234.192 69.594 234.764 69.882C235.336 70.17 235.834 70.602 236.258 71.178L235.142 71.784C234.854 71.424 234.518 71.152 234.134 70.968C233.754 70.784 233.364 70.692 232.964 70.692C232.576 70.692 232.208 70.772 231.86 70.932C231.512 71.088 231.204 71.308 230.936 71.592C230.668 71.872 230.456 72.202 230.3 72.582C230.148 72.958 230.072 73.368 230.072 73.812C230.072 74.24 230.146 74.642 230.294 75.018C230.446 75.394 230.654 75.724 230.918 76.008C231.186 76.288 231.494 76.508 231.842 76.668C232.194 76.828 232.57 76.908 232.97 76.908C233.266 76.908 233.55 76.86 233.822 76.764C234.094 76.668 234.346 76.532 234.578 76.356C234.814 76.176 235.02 75.962 235.196 75.714C235.372 75.466 235.512 75.19 235.616 74.886H233.834V73.782H237.08C237.088 74.382 236.984 74.946 236.768 75.474C236.556 76.002 236.26 76.468 235.88 76.872C235.504 77.272 235.066 77.586 234.566 77.814C234.066 78.042 233.53 78.156 232.958 78.156ZM238.216 78V69.6H241.198C241.63 69.6 242.02 69.688 242.368 69.864C242.72 70.04 242.998 70.294 243.202 70.626C243.41 70.954 243.514 71.348 243.514 71.808C243.514 72.032 243.478 72.252 243.406 72.468C243.334 72.684 243.232 72.874 243.1 73.038C242.968 73.202 242.808 73.318 242.62 73.386C242.876 73.45 243.088 73.566 243.256 73.734C243.428 73.898 243.564 74.09 243.664 74.31C243.764 74.53 243.834 74.758 243.874 74.994C243.918 75.23 243.94 75.454 243.94 75.666C243.94 76.114 243.832 76.514 243.616 76.866C243.4 77.218 243.11 77.496 242.746 77.7C242.386 77.9 241.988 78 241.552 78H238.216ZM239.464 76.92H241.432C241.688 76.92 241.92 76.856 242.128 76.728C242.34 76.6 242.508 76.424 242.632 76.2C242.756 75.972 242.818 75.716 242.818 75.432C242.818 75.184 242.756 74.95 242.632 74.73C242.508 74.506 242.34 74.326 242.128 74.19C241.92 74.054 241.688 73.986 241.432 73.986H239.464V76.92ZM239.464 72.924H241.066C241.394 72.924 241.676 72.824 241.912 72.624C242.148 72.424 242.266 72.15 242.266 71.802C242.266 71.43 242.148 71.152 241.912 70.968C241.676 70.78 241.394 70.686 241.066 70.686H239.464V72.924Z" fill="white" fill-opacity="0.9"/>
<rect x="284" y="24" width="339" height="83" rx="8" fill="#142A37"/>
<rect x="304" y="36.5" width="34" height="34" rx="4" fill="#2FB3E3" fill-opacity="0.1"/>
<path d="M323.866 47.083H325.083C325.446 47.083 325.792 47.1495 326.112 47.2708L322.8 50.583H320.366L323.866 47.083ZM328 50.583V49.9997C328 49.183 327.662 48.4433 327.119 47.9137L324.45 50.583H328ZM320.138 47.083L316.589 50.583H318.717L322.217 47.083H320.138ZM314.928 50.583L318.476 47.083H316.917C315.308 47.083 314 48.3914 314 49.9997V50.583H314.928ZM328 51.7497V56.9997C328 58.6079 326.692 59.9163 325.083 59.9163H316.917C315.308 59.9163 314 58.6079 314 56.9997V51.7497H328ZM322.777 55.3663L320.074 53.9197C319.711 53.7021 319.25 53.9634 319.25 54.3863V57.2803C319.25 57.7032 319.711 57.9645 320.074 57.7469L322.777 56.3003C323.13 56.0891 323.13 55.5781 322.777 55.3669V55.3663Z" fill="#2FB3E3"/>
<path d="M358.184 42.664H356.504L356.496 49H354.832L354.84 42.664H353.568V41H354.84L354.832 38.488H356.496L356.504 41H358.184V42.664ZM365.653 41H367.317V49H365.645L365.581 47.84C365.346 48.2507 365.029 48.5813 364.629 48.832C364.229 49.0827 363.757 49.208 363.213 49.208C362.626 49.208 362.074 49.0987 361.557 48.88C361.039 48.656 360.583 48.3467 360.189 47.952C359.799 47.5573 359.495 47.104 359.277 46.592C359.058 46.0747 358.949 45.52 358.949 44.928C358.949 44.3573 359.055 43.8213 359.269 43.32C359.482 42.8133 359.778 42.3707 360.157 41.992C360.535 41.6133 360.973 41.3173 361.469 41.104C361.97 40.8853 362.506 40.776 363.077 40.776C363.658 40.776 364.17 40.9093 364.613 41.176C365.061 41.4373 365.431 41.7733 365.725 42.184L365.653 41ZM363.173 47.6C363.642 47.6 364.053 47.4853 364.405 47.256C364.757 47.0213 365.029 46.7067 365.221 46.312C365.418 45.9173 365.517 45.48 365.517 45C365.517 44.5147 365.418 44.0747 365.221 43.68C365.023 43.2853 364.749 42.9733 364.397 42.744C364.05 42.5093 363.642 42.392 363.173 42.392C362.709 42.392 362.285 42.5093 361.901 42.744C361.517 42.9787 361.213 43.2933 360.989 43.688C360.765 44.0827 360.653 44.52 360.653 45C360.653 45.4853 360.767 45.9253 360.997 46.32C361.231 46.7093 361.538 47.0213 361.917 47.256C362.301 47.4853 362.719 47.6 363.173 47.6ZM376.176 43.984V49H374.512V44.392C374.512 44.0347 374.424 43.7093 374.248 43.416C374.077 43.1227 373.845 42.8907 373.552 42.72C373.264 42.544 372.938 42.456 372.576 42.456C372.224 42.456 371.901 42.544 371.608 42.72C371.314 42.8907 371.08 43.1227 370.904 43.416C370.728 43.7093 370.64 44.0347 370.64 44.392V49H368.976V37H370.64V41.848C370.917 41.5173 371.258 41.256 371.664 41.064C372.069 40.872 372.506 40.776 372.976 40.776C373.568 40.776 374.106 40.92 374.592 41.208C375.077 41.496 375.461 41.8827 375.744 42.368C376.032 42.8533 376.176 43.392 376.176 43.984ZM377.453 46V41H379.117V45.592C379.117 45.9493 379.205 46.2747 379.381 46.568C379.557 46.8613 379.791 47.096 380.085 47.272C380.378 47.4427 380.701 47.528 381.053 47.528C381.41 47.528 381.733 47.4427 382.021 47.272C382.314 47.096 382.546 46.8613 382.717 46.568C382.893 46.2747 382.981 45.9493 382.981 45.592V41H384.645L384.653 49H382.989L382.981 48.136C382.709 48.4667 382.37 48.728 381.965 48.92C381.559 49.112 381.125 49.208 380.661 49.208C380.069 49.208 379.53 49.064 379.045 48.776C378.559 48.488 378.173 48.1013 377.885 47.616C377.597 47.1307 377.453 46.592 377.453 46ZM393.457 43.984V49H391.793V44.392C391.793 44.0347 391.705 43.7093 391.529 43.416C391.358 43.1227 391.126 42.8907 390.833 42.72C390.545 42.544 390.22 42.456 389.857 42.456C389.505 42.456 389.182 42.544 388.889 42.72C388.596 42.8907 388.361 43.1227 388.185 43.416C388.009 43.7093 387.921 44.0347 387.921 44.392V49H386.257V41H387.921V41.848C388.198 41.5173 388.54 41.256 388.945 41.064C389.35 40.872 389.788 40.776 390.257 40.776C390.849 40.776 391.388 40.92 391.873 41.208C392.358 41.496 392.742 41.8827 393.025 42.368C393.313 42.8533 393.457 43.392 393.457 43.984ZM399.276 40.776C400.055 40.776 400.762 40.9653 401.396 41.344C402.036 41.7227 402.546 42.232 402.924 42.872C403.303 43.5067 403.492 44.2133 403.492 44.992C403.492 45.5733 403.383 46.12 403.164 46.632C402.946 47.1387 402.642 47.5867 402.252 47.976C401.868 48.36 401.42 48.6613 400.908 48.88C400.402 49.0987 399.858 49.208 399.276 49.208C398.716 49.208 398.226 49.08 397.804 48.824C397.388 48.5627 397.047 48.2293 396.78 47.824V49H395.116V37H396.78V42.16C397.047 41.7493 397.388 41.416 397.804 41.16C398.226 40.904 398.716 40.776 399.276 40.776ZM399.26 47.592C399.724 47.592 400.148 47.4747 400.532 47.24C400.916 47.0053 401.22 46.6907 401.444 46.296C401.674 45.9013 401.788 45.4667 401.788 44.992C401.788 44.5067 401.674 44.0667 401.444 43.672C401.215 43.2773 400.908 42.9653 400.524 42.736C400.14 42.5013 399.719 42.384 399.26 42.384C398.796 42.384 398.388 42.5013 398.036 42.736C397.684 42.9707 397.41 43.2853 397.212 43.68C397.015 44.0747 396.916 44.512 396.916 44.992C396.916 45.472 397.015 45.9093 397.212 46.304C397.41 46.6987 397.684 47.0133 398.036 47.248C398.388 47.4773 398.796 47.592 399.26 47.592ZM410.997 41H412.661V49H410.989L410.925 47.84C410.69 48.2507 410.373 48.5813 409.973 48.832C409.573 49.0827 409.101 49.208 408.557 49.208C407.97 49.208 407.418 49.0987 406.901 48.88C406.383 48.656 405.927 48.3467 405.533 47.952C405.143 47.5573 404.839 47.104 404.621 46.592C404.402 46.0747 404.293 45.52 404.293 44.928C404.293 44.3573 404.399 43.8213 404.613 43.32C404.826 42.8133 405.122 42.3707 405.501 41.992C405.879 41.6133 406.317 41.3173 406.813 41.104C407.314 40.8853 407.85 40.776 408.421 40.776C409.002 40.776 409.514 40.9093 409.957 41.176C410.405 41.4373 410.775 41.7733 411.069 42.184L410.997 41ZM408.516 47.6C408.986 47.6 409.397 47.4853 409.749 47.256C410.101 47.0213 410.373 46.7067 410.565 46.312C410.762 45.9173 410.861 45.48 410.861 45C410.861 44.5147 410.762 44.0747 410.565 43.68C410.367 43.2853 410.093 42.9733 409.741 42.744C409.394 42.5093 408.986 42.392 408.516 42.392C408.053 42.392 407.629 42.5093 407.245 42.744C406.861 42.9787 406.557 43.2933 406.333 43.688C406.109 44.0827 405.997 44.52 405.997 45C405.997 45.4853 406.111 45.9253 406.341 46.32C406.575 46.7093 406.882 47.0213 407.261 47.256C407.645 47.4853 408.063 47.6 408.516 47.6ZM414.257 49V41H415.921V41.848C416.198 41.5173 416.54 41.256 416.945 41.064C417.35 40.872 417.788 40.776 418.257 40.776C418.556 40.776 418.852 40.816 419.145 40.896L418.481 42.576C418.273 42.496 418.065 42.456 417.857 42.456C417.505 42.456 417.182 42.544 416.889 42.72C416.596 42.8907 416.361 43.1227 416.185 43.416C416.009 43.7093 415.921 44.0347 415.921 44.392V49H414.257ZM419.796 46V41H421.46V45.592C421.46 45.9493 421.548 46.2747 421.724 46.568C421.9 46.8613 422.135 47.096 422.428 47.272C422.722 47.4427 423.044 47.528 423.396 47.528C423.754 47.528 424.076 47.4427 424.364 47.272C424.658 47.096 424.89 46.8613 425.06 46.568C425.236 46.2747 425.324 45.9493 425.324 45.592V41H426.988L426.996 49H425.332L425.324 48.136C425.052 48.4667 424.714 48.728 424.308 48.92C423.903 49.112 423.468 49.208 423.004 49.208C422.412 49.208 421.874 49.064 421.388 48.776C420.903 48.488 420.516 48.1013 420.228 47.616C419.94 47.1307 419.796 46.592 419.796 46ZM429.153 49.208C428.907 49.208 428.699 49.1227 428.529 48.952C428.363 48.7813 428.281 48.5733 428.281 48.328C428.281 48.088 428.363 47.8827 428.529 47.712C428.699 47.5413 428.907 47.456 429.153 47.456C429.398 47.456 429.606 47.5413 429.777 47.712C429.947 47.8827 430.033 48.088 430.033 48.328C430.033 48.5733 429.947 48.7813 429.777 48.952C429.606 49.1227 429.398 49.208 429.153 49.208ZM431.96 49V41H433.624V41.848C433.901 41.5173 434.24 41.256 434.64 41.064C435.045 40.872 435.483 40.776 435.952 40.776C436.523 40.776 437.048 40.9147 437.528 41.192C438.008 41.464 438.389 41.8267 438.672 42.28C438.955 41.8267 439.331 41.464 439.8 41.192C440.275 40.9147 440.797 40.776 441.368 40.776C441.96 40.776 442.499 40.92 442.984 41.208C443.469 41.496 443.856 41.8827 444.144 42.368C444.432 42.8533 444.576 43.392 444.576 43.984V49H442.912V44.408C442.912 44.056 442.827 43.7333 442.656 43.44C442.485 43.1467 442.256 42.9093 441.968 42.728C441.68 42.5467 441.36 42.456 441.008 42.456C440.656 42.456 440.336 42.5413 440.048 42.712C439.76 42.8827 439.531 43.1147 439.36 43.408C439.189 43.7013 439.104 44.0347 439.104 44.408V49H437.44V44.408C437.44 44.0347 437.355 43.7013 437.184 43.408C437.013 43.1147 436.781 42.8827 436.488 42.712C436.2 42.5413 435.88 42.456 435.528 42.456C435.181 42.456 434.861 42.5467 434.568 42.728C434.28 42.9093 434.051 43.1467 433.88 43.44C433.709 43.7333 433.624 44.056 433.624 44.408V49H431.96ZM447.843 53H446.179V41H447.843V42.176C448.109 41.7653 448.451 41.432 448.867 41.176C449.283 40.92 449.773 40.792 450.339 40.792C450.92 40.792 451.464 40.9013 451.971 41.12C452.483 41.3387 452.931 41.6427 453.315 42.032C453.699 42.416 454 42.8613 454.219 43.368C454.437 43.8747 454.547 44.4187 454.547 45C454.547 45.5813 454.437 46.128 454.219 46.64C454 47.152 453.699 47.6027 453.315 47.992C452.931 48.376 452.483 48.6773 451.971 48.896C451.464 49.1147 450.92 49.224 450.339 49.224C449.773 49.224 449.283 49.096 448.867 48.84C448.451 48.5787 448.109 48.2453 447.843 47.84V53ZM450.323 42.4C449.859 42.4 449.451 42.5173 449.099 42.752C448.747 42.9867 448.472 43.3013 448.275 43.696C448.077 44.0853 447.979 44.52 447.979 45C447.979 45.48 448.077 45.9173 448.275 46.312C448.472 46.7067 448.747 47.0213 449.099 47.256C449.451 47.4907 449.859 47.608 450.323 47.608C450.781 47.608 451.203 47.4933 451.587 47.264C451.971 47.0293 452.277 46.7147 452.507 46.32C452.736 45.9253 452.851 45.4853 452.851 45C452.851 44.5253 452.736 44.0907 452.507 43.696C452.283 43.3013 451.979 42.9867 451.595 42.752C451.211 42.5173 450.787 42.4 450.323 42.4ZM460.463 49V46.136H455.671V44.464L460.063 37.8H462.127V44.472H463.151V46.136H462.127V49H460.463ZM457.607 44.464L460.463 44.472L460.447 40.096L457.607 44.464Z" fill="white"/>
<path d="M353.72 67.5L355.346 59.1H356.12L358.388 65.064L360.65 59.1H361.424L363.056 67.5H362.03L360.848 61.404L358.718 67.044H358.052L355.922 61.404L354.746 67.5H353.72ZM366.614 67.656C366.062 67.656 365.558 67.514 365.102 67.23C364.65 66.946 364.288 66.566 364.016 66.09C363.748 65.61 363.614 65.08 363.614 64.5C363.614 64.06 363.692 63.65 363.848 63.27C364.004 62.886 364.218 62.55 364.49 62.262C364.766 61.97 365.086 61.742 365.45 61.578C365.814 61.414 366.202 61.332 366.614 61.332C367.066 61.332 367.48 61.424 367.856 61.608C368.236 61.788 368.56 62.04 368.828 62.364C369.1 62.688 369.302 63.064 369.434 63.492C369.57 63.92 369.62 64.378 369.584 64.866H364.688C364.736 65.206 364.848 65.51 365.024 65.778C365.2 66.042 365.424 66.252 365.696 66.408C365.972 66.564 366.278 66.644 366.614 66.648C366.974 66.648 367.3 66.556 367.592 66.372C367.884 66.184 368.12 65.928 368.3 65.604L369.326 65.844C369.086 66.376 368.724 66.812 368.24 67.152C367.756 67.488 367.214 67.656 366.614 67.656ZM364.658 64.074H368.57C368.538 63.738 368.43 63.432 368.246 63.156C368.062 62.876 367.828 62.652 367.544 62.484C367.26 62.316 366.95 62.232 366.614 62.232C366.278 62.232 365.97 62.314 365.69 62.478C365.41 62.642 365.178 62.864 364.994 63.144C364.814 63.42 364.702 63.73 364.658 64.074ZM375.899 63.768V67.5H374.891V63.99C374.891 63.686 374.817 63.41 374.669 63.162C374.521 62.914 374.323 62.718 374.075 62.574C373.827 62.426 373.551 62.352 373.247 62.352C372.947 62.352 372.671 62.426 372.419 62.574C372.171 62.718 371.973 62.914 371.825 63.162C371.677 63.41 371.603 63.686 371.603 63.99V67.5H370.595V61.5H371.603V62.25C371.815 61.97 372.083 61.748 372.407 61.584C372.731 61.416 373.083 61.332 373.463 61.332C373.911 61.332 374.319 61.442 374.687 61.662C375.059 61.878 375.353 62.17 375.569 62.538C375.789 62.906 375.899 63.316 375.899 63.768ZM381.668 61.5H382.676V67.692C382.676 68.088 382.59 68.456 382.418 68.796C382.25 69.14 382.022 69.438 381.734 69.69C381.446 69.946 381.118 70.144 380.75 70.284C380.382 70.428 379.998 70.5 379.598 70.5C379.182 70.5 378.78 70.406 378.392 70.218C378.004 70.034 377.664 69.786 377.372 69.474C377.084 69.166 376.876 68.82 376.748 68.436L377.672 68.016C377.748 68.292 377.884 68.54 378.08 68.76C378.28 68.984 378.512 69.16 378.776 69.288C379.044 69.42 379.318 69.486 379.598 69.486C379.862 69.486 380.116 69.44 380.36 69.348C380.608 69.256 380.83 69.128 381.026 68.964C381.226 68.804 381.382 68.614 381.494 68.394C381.61 68.178 381.668 67.944 381.668 67.692V66.498C381.464 66.842 381.194 67.122 380.858 67.338C380.526 67.55 380.138 67.656 379.694 67.656C379.27 67.656 378.872 67.574 378.5 67.41C378.128 67.246 377.802 67.02 377.522 66.732C377.242 66.44 377.022 66.104 376.862 65.724C376.702 65.344 376.622 64.936 376.622 64.5C376.622 64.064 376.702 63.656 376.862 63.276C377.022 62.892 377.242 62.556 377.522 62.268C377.802 61.976 378.128 61.748 378.5 61.584C378.872 61.42 379.27 61.338 379.694 61.338C380.138 61.338 380.526 61.444 380.858 61.656C381.194 61.868 381.464 62.148 381.668 62.496V61.5ZM379.7 66.678C380.088 66.678 380.424 66.578 380.708 66.378C380.996 66.178 381.218 65.912 381.374 65.58C381.53 65.248 381.608 64.888 381.608 64.5C381.608 64.1 381.528 63.736 381.368 63.408C381.212 63.076 380.99 62.812 380.702 62.616C380.418 62.416 380.084 62.316 379.7 62.316C379.324 62.316 378.98 62.414 378.668 62.61C378.356 62.806 378.108 63.07 377.924 63.402C377.744 63.73 377.654 64.096 377.654 64.5C377.654 64.904 377.746 65.272 377.93 65.604C378.118 65.932 378.366 66.194 378.674 66.39C378.986 66.582 379.328 66.678 379.7 66.678ZM383.773 65.22V61.5H384.781V64.998C384.781 65.302 384.855 65.578 385.003 65.826C385.151 66.074 385.349 66.272 385.597 66.42C385.849 66.564 386.125 66.636 386.425 66.636C386.729 66.636 387.003 66.564 387.247 66.42C387.495 66.272 387.693 66.074 387.841 65.826C387.989 65.578 388.063 65.302 388.063 64.998V61.5H389.071L389.077 67.5H388.069L388.063 66.738C387.851 67.018 387.583 67.242 387.259 67.41C386.935 67.574 386.585 67.656 386.209 67.656C385.761 67.656 385.351 67.548 384.979 67.332C384.611 67.112 384.317 66.818 384.097 66.45C383.881 66.082 383.773 65.672 383.773 65.22ZM395.587 63.768V67.5H394.579V63.99C394.579 63.686 394.505 63.41 394.357 63.162C394.209 62.914 394.011 62.718 393.763 62.574C393.515 62.426 393.239 62.352 392.935 62.352C392.635 62.352 392.359 62.426 392.107 62.574C391.859 62.718 391.661 62.914 391.513 63.162C391.365 63.41 391.291 63.686 391.291 63.99V67.5H390.283V61.5H391.291V62.25C391.503 61.97 391.771 61.748 392.095 61.584C392.419 61.416 392.771 61.332 393.151 61.332C393.599 61.332 394.007 61.442 394.375 61.662C394.747 61.878 395.041 62.17 395.257 62.538C395.477 62.906 395.587 63.316 395.587 63.768ZM401.355 61.5H402.363V67.692C402.363 68.088 402.277 68.456 402.105 68.796C401.937 69.14 401.709 69.438 401.421 69.69C401.133 69.946 400.805 70.144 400.437 70.284C400.069 70.428 399.685 70.5 399.285 70.5C398.869 70.5 398.467 70.406 398.079 70.218C397.691 70.034 397.351 69.786 397.059 69.474C396.771 69.166 396.563 68.82 396.435 68.436L397.359 68.016C397.435 68.292 397.571 68.54 397.767 68.76C397.967 68.984 398.199 69.16 398.463 69.288C398.731 69.42 399.005 69.486 399.285 69.486C399.549 69.486 399.803 69.44 400.047 69.348C400.295 69.256 400.517 69.128 400.713 68.964C400.913 68.804 401.069 68.614 401.181 68.394C401.297 68.178 401.355 67.944 401.355 67.692V66.498C401.151 66.842 400.881 67.122 400.545 67.338C400.213 67.55 399.825 67.656 399.381 67.656C398.957 67.656 398.559 67.574 398.187 67.41C397.815 67.246 397.489 67.02 397.209 66.732C396.929 66.44 396.709 66.104 396.549 65.724C396.389 65.344 396.309 64.936 396.309 64.5C396.309 64.064 396.389 63.656 396.549 63.276C396.709 62.892 396.929 62.556 397.209 62.268C397.489 61.976 397.815 61.748 398.187 61.584C398.559 61.42 398.957 61.338 399.381 61.338C399.825 61.338 400.213 61.444 400.545 61.656C400.881 61.868 401.151 62.148 401.355 62.496V61.5ZM399.387 66.678C399.775 66.678 400.111 66.578 400.395 66.378C400.683 66.178 400.905 65.912 401.061 65.58C401.217 65.248 401.295 64.888 401.295 64.5C401.295 64.1 401.215 63.736 401.055 63.408C400.899 63.076 400.677 62.812 400.389 62.616C400.105 62.416 399.771 62.316 399.387 62.316C399.011 62.316 398.667 62.414 398.355 62.61C398.043 62.806 397.795 63.07 397.611 63.402C397.431 63.73 397.341 64.096 397.341 64.5C397.341 64.904 397.433 65.272 397.617 65.604C397.805 65.932 398.053 66.194 398.361 66.39C398.673 66.582 399.015 66.678 399.387 66.678ZM408.41 61.5H409.418V67.692C409.418 68.088 409.332 68.456 409.16 68.796C408.992 69.14 408.764 69.438 408.476 69.69C408.188 69.946 407.86 70.144 407.492 70.284C407.124 70.428 406.74 70.5 406.34 70.5C405.924 70.5 405.522 70.406 405.134 70.218C404.746 70.034 404.406 69.786 404.114 69.474C403.826 69.166 403.618 68.82 403.49 68.436L404.414 68.016C404.49 68.292 404.626 68.54 404.822 68.76C405.022 68.984 405.254 69.16 405.518 69.288C405.786 69.42 406.06 69.486 406.34 69.486C406.604 69.486 406.858 69.44 407.102 69.348C407.35 69.256 407.572 69.128 407.768 68.964C407.968 68.804 408.124 68.614 408.236 68.394C408.352 68.178 408.41 67.944 408.41 67.692V66.498C408.206 66.842 407.936 67.122 407.6 67.338C407.268 67.55 406.88 67.656 406.436 67.656C406.012 67.656 405.614 67.574 405.242 67.41C404.87 67.246 404.544 67.02 404.264 66.732C403.984 66.44 403.764 66.104 403.604 65.724C403.444 65.344 403.364 64.936 403.364 64.5C403.364 64.064 403.444 63.656 403.604 63.276C403.764 62.892 403.984 62.556 404.264 62.268C404.544 61.976 404.87 61.748 405.242 61.584C405.614 61.42 406.012 61.338 406.436 61.338C406.88 61.338 407.268 61.444 407.6 61.656C407.936 61.868 408.206 62.148 408.41 62.496V61.5ZM406.442 66.678C406.83 66.678 407.166 66.578 407.45 66.378C407.738 66.178 407.96 65.912 408.116 65.58C408.272 65.248 408.35 64.888 408.35 64.5C408.35 64.1 408.27 63.736 408.11 63.408C407.954 63.076 407.732 62.812 407.444 62.616C407.16 62.416 406.826 62.316 406.442 62.316C406.066 62.316 405.722 62.414 405.41 62.61C405.098 62.806 404.85 63.07 404.666 63.402C404.486 63.73 404.396 64.096 404.396 64.5C404.396 64.904 404.488 65.272 404.672 65.604C404.86 65.932 405.108 66.194 405.416 66.39C405.728 66.582 406.07 66.678 406.442 66.678ZM415.603 61.5H416.611V67.5H415.603L415.561 66.486C415.373 66.834 415.113 67.116 414.781 67.332C414.453 67.548 414.061 67.656 413.605 67.656C413.165 67.656 412.753 67.574 412.369 67.41C411.985 67.242 411.645 67.012 411.349 66.72C411.057 66.424 410.829 66.084 410.665 65.7C410.501 65.316 410.419 64.902 410.419 64.458C410.419 64.03 410.499 63.626 410.659 63.246C410.819 62.866 411.041 62.534 411.325 62.25C411.613 61.962 411.945 61.738 412.321 61.578C412.697 61.414 413.101 61.332 413.533 61.332C414.005 61.332 414.419 61.444 414.775 61.668C415.131 61.888 415.419 62.174 415.639 62.526L415.603 61.5ZM413.587 66.678C413.983 66.678 414.325 66.582 414.613 66.39C414.905 66.194 415.129 65.93 415.285 65.598C415.445 65.266 415.525 64.9 415.525 64.5C415.525 64.092 415.445 63.724 415.285 63.396C415.125 63.064 414.899 62.802 414.607 62.61C414.319 62.414 413.979 62.316 413.587 62.316C413.191 62.316 412.831 62.414 412.507 62.61C412.183 62.806 411.925 63.07 411.733 63.402C411.545 63.73 411.451 64.096 411.451 64.5C411.451 64.904 411.549 65.272 411.745 65.604C411.941 65.932 412.201 66.194 412.525 66.39C412.849 66.582 413.203 66.678 413.587 66.678ZM423.184 63.768V67.5H422.176V63.99C422.176 63.686 422.102 63.41 421.954 63.162C421.806 62.914 421.608 62.718 421.36 62.574C421.112 62.426 420.836 62.352 420.532 62.352C420.232 62.352 419.956 62.426 419.704 62.574C419.456 62.718 419.258 62.914 419.11 63.162C418.962 63.41 418.888 63.686 418.888 63.99V67.5H417.88V58.5H418.888V62.25C419.1 61.97 419.368 61.748 419.692 61.584C420.016 61.416 420.368 61.332 420.748 61.332C421.196 61.332 421.604 61.442 421.972 61.662C422.344 61.878 422.638 62.17 422.854 62.538C423.074 62.906 423.184 63.316 423.184 63.768Z" fill="white" fill-opacity="0.6"/>
<g clip-path="url(#clip1_1013_13)">
<path d="M597.024 41.1758C596.938 41.2574 596.886 41.3053 596.835 41.3553C595.4 42.7926 593.963 44.229 592.531 45.6695C592.277 45.9247 591.987 46.0374 591.638 45.9421C591.085 45.7911 590.853 45.1226 591.184 44.6542C591.237 44.5795 591.303 44.5142 591.368 44.449C592.789 43.0248 594.21 41.6005 595.633 40.1784C595.688 40.1237 595.762 40.0884 595.827 40.0437C595.83 40.0116 595.834 39.979 595.837 39.9469C595.77 39.9053 595.692 39.8748 595.637 39.8205C594.204 38.3895 592.775 36.9553 591.343 35.5237C591.169 35.35 591.043 35.1584 591.035 34.9053C591.024 34.5495 591.171 34.2758 591.488 34.1148C591.802 33.9542 592.111 33.989 592.394 34.2032C592.462 34.2542 592.52 34.3179 592.581 34.3784C593.998 35.7974 595.414 37.2163 596.83 38.6369C596.881 38.6874 596.916 38.7532 596.97 38.8274C597.061 38.7405 597.118 38.689 597.172 38.6353C598.607 37.1979 600.044 35.7611 601.477 34.3205C601.731 34.0648 602.023 33.9563 602.371 34.0558C602.93 34.2158 603.15 34.8958 602.8 35.3637C602.741 35.4421 602.67 35.5116 602.6 35.5811C601.193 36.9916 599.786 38.4016 598.378 39.81C598.322 39.8653 598.255 39.9095 598.177 39.9726C598.255 40.0553 598.306 40.1116 598.36 40.1658C599.785 41.5942 601.211 43.0232 602.639 44.4505C602.811 44.6226 602.949 44.8074 602.964 45.0611C602.986 45.4247 602.844 45.7079 602.522 45.8763C602.202 46.0437 601.886 46.009 601.6 45.7853C601.507 45.7126 601.428 45.6232 601.344 45.5395C599.955 44.1484 598.566 42.7574 597.178 41.3647C597.126 41.3137 597.085 41.2521 597.024 41.1758Z" fill="white" fill-opacity="0.8"/>
</g>
<rect x="304" y="87.5" width="257" height="3" rx="1.5" fill="white" fill-opacity="0.1"/>
<rect x="304" y="87.5" width="128.5" height="3" rx="1.5" fill="#2FB3E3"/>
<path d="M584.21 93.156C583.69 93.156 583.218 93.03 582.794 92.778C582.37 92.526 582.034 92.19 581.786 91.77C581.542 91.346 581.42 90.88 581.42 90.372H582.428C582.428 90.696 582.508 90.994 582.668 91.266C582.828 91.534 583.042 91.748 583.31 91.908C583.582 92.068 583.882 92.148 584.21 92.148C584.534 92.148 584.83 92.068 585.098 91.908C585.366 91.748 585.58 91.534 585.74 91.266C585.9 90.994 585.98 90.696 585.98 90.372C585.98 90.048 585.904 89.75 585.752 89.478C585.604 89.206 585.386 88.99 585.098 88.83C584.81 88.666 584.46 88.584 584.048 88.584H581.978L582.794 84.6H586.778V85.608H583.61L583.22 87.576L584.09 87.582C584.662 87.594 585.164 87.722 585.596 87.966C586.032 88.206 586.372 88.534 586.616 88.95C586.864 89.362 586.988 89.836 586.988 90.372C586.988 90.752 586.916 91.112 586.772 91.452C586.628 91.788 586.428 92.084 586.172 92.34C585.916 92.596 585.62 92.796 585.284 92.94C584.952 93.084 584.594 93.156 584.21 93.156ZM590.934 93.156C590.434 93.156 589.986 93.044 589.59 92.82C589.194 92.592 588.854 92.278 588.57 91.878C588.286 91.478 588.07 91.016 587.922 90.492C587.774 89.964 587.7 89.4 587.7 88.8C587.7 88.2 587.774 87.636 587.922 87.108C588.07 86.58 588.286 86.118 588.57 85.722C588.854 85.322 589.194 85.01 589.59 84.786C589.986 84.558 590.434 84.444 590.934 84.444C591.43 84.444 591.876 84.558 592.272 84.786C592.672 85.01 593.01 85.322 593.286 85.722C593.566 86.118 593.78 86.58 593.928 87.108C594.08 87.636 594.156 88.2 594.156 88.8C594.156 89.4 594.08 89.964 593.928 90.492C593.78 91.016 593.566 91.478 593.286 91.878C593.01 92.278 592.672 92.592 592.272 92.82C591.876 93.044 591.43 93.156 590.934 93.156ZM590.934 92.148C591.434 92.148 591.852 91.994 592.188 91.686C592.528 91.374 592.782 90.964 592.95 90.456C593.118 89.948 593.202 89.396 593.202 88.8C593.202 88.172 593.114 87.606 592.938 87.102C592.766 86.594 592.51 86.192 592.17 85.896C591.834 85.6 591.422 85.452 590.934 85.452C590.55 85.452 590.214 85.542 589.926 85.722C589.642 85.902 589.406 86.148 589.218 86.46C589.03 86.772 588.888 87.13 588.792 87.534C588.7 87.934 588.654 88.356 588.654 88.8C588.654 89.396 588.74 89.95 588.912 90.462C589.084 90.97 589.338 91.378 589.674 91.686C590.014 91.994 590.434 92.148 590.934 92.148ZM595.532 93L600.38 84.6H601.544L596.696 93H595.532ZM596.528 87.978C596.244 87.978 595.986 87.91 595.754 87.774C595.526 87.638 595.342 87.454 595.202 87.222C595.062 86.99 594.992 86.732 594.992 86.448C594.992 86.156 595.062 85.896 595.202 85.668C595.342 85.436 595.528 85.252 595.76 85.116C595.992 84.98 596.248 84.912 596.528 84.912C596.808 84.912 597.064 84.982 597.296 85.122C597.528 85.258 597.712 85.442 597.848 85.674C597.988 85.902 598.058 86.16 598.058 86.448C598.058 86.736 597.988 86.996 597.848 87.228C597.708 87.456 597.522 87.638 597.29 87.774C597.058 87.91 596.804 87.978 596.528 87.978ZM596.528 87.24C596.748 87.24 596.934 87.164 597.086 87.012C597.242 86.856 597.32 86.668 597.32 86.448C597.32 86.224 597.242 86.036 597.086 85.884C596.934 85.728 596.748 85.65 596.528 85.65C596.308 85.65 596.12 85.728 595.964 85.884C595.808 86.036 595.73 86.224 595.73 86.448C595.73 86.668 595.808 86.856 595.964 87.012C596.12 87.164 596.308 87.24 596.528 87.24ZM600.554 92.694C600.274 92.694 600.016 92.624 599.78 92.484C599.548 92.34 599.362 92.152 599.222 91.92C599.086 91.684 599.018 91.43 599.018 91.158C599.018 90.87 599.088 90.61 599.228 90.378C599.372 90.146 599.56 89.962 599.792 89.826C600.024 89.69 600.278 89.622 600.554 89.622C600.842 89.622 601.102 89.694 601.334 89.838C601.566 89.978 601.75 90.164 601.886 90.396C602.022 90.628 602.09 90.882 602.09 91.158C602.09 91.442 602.02 91.7 601.88 91.932C601.744 92.164 601.56 92.35 601.328 92.49C601.096 92.626 600.838 92.694 600.554 92.694ZM600.554 91.956C600.774 91.956 600.962 91.878 601.118 91.722C601.274 91.566 601.352 91.378 601.352 91.158C601.352 90.938 601.274 90.75 601.118 90.594C600.962 90.438 600.774 90.36 600.554 90.36C600.334 90.36 600.146 90.438 599.99 90.594C599.834 90.75 599.756 90.938 599.756 91.158C599.756 91.378 599.834 91.566 599.99 91.722C600.146 91.878 600.334 91.956 600.554 91.956Z" fill="white" fill-opacity="0.8"/>
<defs>
<filter id="filter0_b_1013_13" x="-81" y="-73.5" width="254" height="254" filterUnits="userSpaceOnUse" color-interpolation-filters="sRGB">
<feFlood flood-opacity="0" result="BackgroundImageFix"/>
<feGaussianBlur in="BackgroundImageFix" stdDeviation="50"/>
<feComposite in2="SourceAlpha" operator="in" result="effect1_backgroundBlur_1013_13"/>
<feBlend mode="normal" in="SourceGraphic" in2="effect1_backgroundBlur_1013_13" result="shape"/>
</filter>
<clipPath id="clip0_1013_13">
<rect width="20" height="20" fill="white" transform="translate(36 43.5)"/>
</clipPath>
<clipPath id="clip1_1013_13">
<rect width="12" height="12" fill="white" transform="translate(591 34)"/>
</clipPath>
</defs>
</svg>
