<svg width="22" height="22" viewBox="0 0 22 22" fill="none" xmlns="http://www.w3.org/2000/svg">
<g clip-path="url(#clip0_850_752)">
<path d="M20.368 15.972L17.9523 7.25811C17.4668 5.50523 16.4088 3.9652 14.9467 2.88332C13.4846 1.80144 11.7025 1.23995 9.88424 1.28828C8.06603 1.33661 6.31628 1.99198 4.9137 3.15C3.51112 4.30802 2.53638 5.90208 2.14476 7.67828L0.276886 16.0816C0.20686 16.3969 0.208545 16.7239 0.281818 17.0385C0.35509 17.3531 0.498079 17.6472 0.700228 17.8991C0.902377 18.151 1.15852 18.3543 1.44976 18.494C1.741 18.6337 2.05988 18.7061 2.38288 18.7061H5.9573C6.23185 19.6556 6.80749 20.4901 7.59751 21.0841C8.38753 21.678 9.34915 21.9992 10.3375 21.9992C11.3259 21.9992 12.2875 21.678 13.0775 21.0841C13.8676 20.4901 14.4432 19.6556 14.7178 18.7061H18.2905C18.623 18.7061 18.951 18.6292 19.2489 18.4815C19.5468 18.3338 19.8065 18.1192 20.0077 17.8545C20.2089 17.5898 20.3462 17.2821 20.4089 16.9556C20.4715 16.629 20.457 16.2924 20.368 15.972ZM2.92038 16.1178L4.67179 8.23476C4.94003 7.0235 5.60576 5.9368 6.56299 5.14762C7.52023 4.35844 8.71394 3.91216 9.95413 3.87982C11.1943 3.84748 12.4097 4.23093 13.4067 4.96914C14.4038 5.70734 15.1253 6.75787 15.4563 7.9535L17.7236 16.1178H2.92038Z" fill="white" fill-opacity="0.8"/>
</g>
<circle cx="16.823" cy="5.17632" r="5.17656" fill="#2FB3E3"/>
<defs>
<clipPath id="clip0_850_752">
<rect width="20.7062" height="20.7062" fill="white" transform="translate(0 1.29395)"/>
</clipPath>
</defs>
</svg>
