<svg width="24" height="25" viewBox="0 0 24 25" fill="none" xmlns="http://www.w3.org/2000/svg">
<g clip-path="url(#clip0_850_1032)">
<path d="M3.4225 25.3745C2.7325 25.3745 2.1565 25.1521 1.6945 24.7072C1.2315 24.2613 1 23.7062 1 23.0417V1.70729C1 1.04284 1.2315 0.488178 1.6945 0.0432895C2.1565 -0.402562 2.7325 -0.625488 3.4225 -0.625488H15.25L22 5.87451V23.0417C22 23.7062 21.769 24.2608 21.307 24.7057C20.844 25.1516 20.2675 25.3745 19.5775 25.3745H3.4225ZM5.443 21.3734H17.557C17.478 20.423 17.1805 19.55 16.6645 18.7546C16.1485 17.9583 15.4615 17.327 14.6035 16.861L15.7555 14.8777C15.7955 14.7997 15.798 14.7145 15.763 14.6221C15.729 14.5296 15.6655 14.4593 15.5725 14.4112C15.4975 14.363 15.4185 14.351 15.3355 14.3751C15.2515 14.3991 15.189 14.4497 15.148 14.5267L13.96 16.5547C13.576 16.3997 13.1785 16.2817 12.7675 16.2008C12.3565 16.12 11.9355 16.0795 11.5045 16.0795C11.0725 16.0795 10.6545 16.1214 10.2505 16.2052C9.8465 16.289 9.443 16.4055 9.04 16.5547L7.8655 14.5267C7.8155 14.4439 7.744 14.3934 7.651 14.3751C7.557 14.3558 7.467 14.3703 7.381 14.4184C7.361 14.4184 7.321 14.5715 7.261 14.8777L8.425 16.861C7.573 17.327 6.883 17.9578 6.355 18.7532C5.828 19.5495 5.524 20.4234 5.443 21.3748M8.788 19.6242C8.627 19.6242 8.486 19.5664 8.365 19.4508C8.243 19.3334 8.182 19.1966 8.182 19.0406C8.182 18.8856 8.243 18.7498 8.365 18.6333C8.485 18.5168 8.626 18.4585 8.788 18.4585C8.95 18.4585 9.0865 18.5163 9.1975 18.6318C9.3095 18.7493 9.3655 18.8856 9.3655 19.0406C9.3655 19.1966 9.308 19.3329 9.193 19.4494C9.077 19.5659 8.942 19.6242 8.788 19.6242ZM14.2405 19.6242C14.0785 19.6242 13.937 19.5664 13.816 19.4508C13.695 19.3353 13.635 19.1985 13.636 19.0406C13.636 18.8856 13.696 18.7498 13.816 18.6333C13.936 18.5168 14.0775 18.4585 14.2405 18.4585C14.4015 18.4585 14.538 18.5163 14.65 18.6318C14.762 18.7493 14.818 18.8856 14.818 19.0406C14.818 19.1966 14.76 19.3329 14.644 19.4494C14.529 19.5659 14.3955 19.6242 14.2405 19.6242ZM14.5 6.59673H20.5L14.5 0.818956V6.59673Z" fill="#E84949"/>
</g>
<defs>
<clipPath id="clip0_850_1032">
<rect width="24" height="24" fill="white" transform="translate(0 0.874512)"/>
</clipPath>
</defs>
</svg>
