<svg width="22" height="22" viewBox="0 0 22 22" fill="none" xmlns="http://www.w3.org/2000/svg">
<path d="M10.083 16.0417C10.0842 14.8742 10.4282 13.7329 11.0725 12.7593C11.7168 11.7857 12.6329 11.0229 13.707 10.5655C14.7811 10.1081 15.9659 9.97639 17.1143 10.1866C18.2626 10.3968 19.3239 10.9398 20.1663 11.748V2.75C20.1663 2.02065 19.8766 1.32118 19.3609 0.805456C18.8452 0.289731 18.1457 0 17.4163 0L6.41634 0C5.20121 0.00145554 4.03627 0.484808 3.17704 1.34403C2.31782 2.20326 1.83446 3.3682 1.83301 4.58333V17.4167C1.83446 18.6318 2.31782 19.7967 3.17704 20.656C4.03627 21.5152 5.20121 21.9985 6.41634 22H16.0413C14.4611 22 12.9456 21.3722 11.8282 20.2548C10.7108 19.1374 10.083 17.6219 10.083 16.0417ZM6.41634 6.41667C6.41634 6.17355 6.51292 5.94039 6.68483 5.76849C6.85674 5.59658 7.08989 5.5 7.33301 5.5H14.6663C14.9095 5.5 15.1426 5.59658 15.3145 5.76849C15.4864 5.94039 15.583 6.17355 15.583 6.41667C15.583 6.65978 15.4864 6.89294 15.3145 7.06485C15.1426 7.23676 14.9095 7.33333 14.6663 7.33333H7.33301C7.08989 7.33333 6.85674 7.23676 6.68483 7.06485C6.51292 6.89294 6.41634 6.65978 6.41634 6.41667ZM21.7311 21.7314C21.5592 21.9033 21.3261 21.9998 21.083 21.9998C20.8399 21.9998 20.6068 21.9033 20.4349 21.7314L18.2285 19.525C17.5751 19.942 16.8165 20.1646 16.0413 20.1667C15.2255 20.1667 14.428 19.9247 13.7496 19.4715C13.0713 19.0182 12.5425 18.374 12.2303 17.6202C11.9181 16.8665 11.8364 16.0371 11.9956 15.2369C12.1548 14.4367 12.5476 13.7017 13.1245 13.1249C13.7014 12.548 14.4364 12.1551 15.2366 11.9959C16.0368 11.8368 16.8662 11.9185 17.6199 12.2307C18.3737 12.5429 19.0179 13.0716 19.4712 13.7499C19.9244 14.4283 20.1663 15.2258 20.1663 16.0417C20.1643 16.8168 19.9417 17.5754 19.5247 18.2288L21.7311 20.4352C21.9029 20.6072 21.9995 20.8403 21.9995 21.0833C21.9995 21.3264 21.9029 21.5595 21.7311 21.7314Z" fill="white"/>
</svg>
