<svg width="1242" height="402" viewBox="0 0 1242 402" fill="none" xmlns="http://www.w3.org/2000/svg">
<rect x="1" y="1" width="1240" height="400" rx="18" fill="#2FB3E3"/>
<path d="M1 151.82C19.1374 151.82 37.2706 151.947 55.3375 150.125C137.041 141.883 218.302 127.509 299.58 116.307C347.482 109.705 395.217 101.475 443.805 101.475C461.074 101.475 478.659 101.388 495.747 104.018C534.59 109.994 572.41 123.371 610.225 133.173C683.346 152.129 754.988 168.496 830.337 177.67C909.139 187.264 988.723 193.295 1068.04 197.927C1104.63 200.063 1142.87 203.507 1179.39 198.266C1194.21 196.138 1213.67 192.761 1226.08 184.535C1230.12 181.857 1236.72 182.237 1241 179.28" stroke="#05151F" stroke-opacity="0.12" stroke-linecap="round"/>
<path d="M55.7031 278.439C62.9554 276.214 69.4974 271.574 76.1488 268.268C105.708 253.579 137.4 243.177 169.536 234.366C209.169 223.499 249.702 215.574 289.815 206.397C318.864 199.751 347.829 193.282 377.307 188.429C421.396 181.169 463.489 179.21 508.27 183.682C580.661 190.912 646.173 219.275 711.621 246.74C769.01 270.823 830.92 290.853 893.974 297.255C917.345 299.627 940.881 299.464 964.337 300.475C990.273 301.593 1016.08 303.11 1042.07 302.17C1089.67 300.449 1137.76 291.905 1184.27 282.677C1202.37 279.085 1218.98 272.691 1236.02 266.234" stroke="#05151F" stroke-opacity="0.12" stroke-linecap="round"/>
<path d="M57.3613 368.449C80.4072 358.003 101.184 344.975 123.119 332.767C152.491 316.419 184.276 301.967 216.414 290.813C279.436 268.94 345.302 260.132 412.305 260.132C470.846 260.132 529.044 266.367 586.277 277.591C614.117 283.052 641.376 290.077 668.888 296.746C703.952 305.246 739.792 310.659 774.616 319.969C878.294 347.689 982.429 370.791 1091.06 371.5C1108.29 371.613 1125.6 371.844 1142.82 371.416C1158.39 371.028 1170.69 364.864 1185.09 360.313C1197.02 356.546 1208.93 352.015 1219.45 345.565" stroke="#05151F" stroke-opacity="0.12" stroke-linecap="round"/>
<path d="M133.618 386.758C173.063 386.758 206.872 367.921 243.03 356.162C292.824 339.968 346.571 332.081 398.675 325.565C442.241 320.116 486.15 321.158 530.006 321.158C551.913 321.158 573.907 321.093 595.763 322.683C612.861 323.927 628.992 328.511 645.496 332.515C701.93 346.207 759.301 369.977 818.271 369.977" stroke="#05151F" stroke-opacity="0.12" stroke-linecap="round"/>
<path d="M302.709 385.228C307.416 388.694 315.548 387.917 320.944 387.771C340.18 387.25 358.973 383.739 377.492 379.126C407.75 371.589 437.091 364.01 468.116 359.124C505.666 353.209 542.286 353.191 580.291 353.191C611.897 353.191 645.217 359.665 675.796 367.006C685.047 369.227 694.342 370.855 703.885 371.498C709.58 371.881 714.742 375.197 720.463 376.075" stroke="#05151F" stroke-opacity="0.12" stroke-linecap="round"/>
<path d="M543 54.3333C557.992 62.3106 573.541 70.5527 589.397 77.1268C610.556 85.9004 631.69 86.9943 654.84 89.6293C741.271 99.467 827.66 100.049 914.759 102.642C959.296 103.968 1004.61 104.84 1049.06 101.792C1072.74 100.169 1096.07 100.761 1119.49 97.1138C1140.9 93.7789 1162.51 89.5203 1184.15 87.6731C1203.39 86.0304 1221.9 80.0693 1241 77.2969" stroke="#05151F" stroke-opacity="0.12" stroke-linecap="round"/>
<path d="M55.7031 84.6876C91.4014 92.9007 125.07 97.1903 162.076 96.8076C200.54 96.4099 238.019 91.2346 275.816 85.0266C340.98 74.3239 403.741 58.1812 467.471 42.1404C520.668 28.7506 577.218 22.956 632.141 20.782C652.846 19.9625 677.379 17.5669 697.254 23.6637" stroke="#05151F" stroke-opacity="0.12" stroke-linecap="round"/>
<path d="M780.147 133.512C793.199 134.341 804.321 139.355 816.802 142.496C843.072 149.108 871.03 148.641 898.032 148.768C952.076 149.023 1003.8 144.98 1057.18 138.004C1097.64 132.716 1138.05 124.917 1178.75 121.307C1195.8 119.795 1212.22 115.205 1229.4 115.205" stroke="#05151F" stroke-opacity="0.12" stroke-linecap="round"/>
<path d="M4.78125 89.3584C12.6178 86.2032 18.3019 77.3333 23.9803 71.7957C31.069 64.8826 38.478 58.5376 47.3755 53.6511C67.2713 42.7244 87.4934 36.6314 110.548 35.2949C132.709 34.0103 156.04 34.2383 178.148 35.5594C206.131 37.2317 234.505 36.0355 262.531 36.0355C289.859 36.0355 316.195 34.5318 343.351 31.6977C365.597 29.3762 387.407 24.1556 409.456 20.8004C421.296 18.9986 432.363 15.3622 443.6 11.8074C448.33 10.3113 452.857 8.21598 457.741 7.25807C461.365 6.54731 463.45 4.16482 467.283 3.66089" stroke="#05151F" stroke-opacity="0.12" stroke-linecap="round"/>
<path d="M670 50.6804C691.254 53.5713 710.72 62.047 732.414 63.4748C766.185 65.6975 800.764 65.0811 834.426 62.0932C893.489 56.8506 953.166 50.5718 1011.66 41.9705C1056.58 35.3645 1102.85 33.3809 1148.48 33.3809C1167.99 33.3809 1187.49 33.3809 1207 33.3809C1218.92 33.3809 1229.74 33.5615 1241 36.6245" stroke="#05151F" stroke-opacity="0.12" stroke-linecap="round"/>
<path d="M713 1C748.571 1.97029 771.754 12.4383 802.934 17.0028C820.017 19.5036 836.258 22.7409 854.348 24.1425C888.844 26.8154 926.175 25.3735 961.205 25.3735C992.21 25.3735 1022.53 25.5312 1053.07 23.1577C1080.75 21.0069 1107.45 17.4533 1135.11 15.341C1167.27 12.8849 1211.73 13.2355 1241 7.64732" stroke="#05151F" stroke-opacity="0.12" stroke-linecap="round"/>
<path d="M970.947 6.42469C989.881 6.42469 1008.39 4.32712 1027.24 3.13098C1042.76 2.14578 1058.38 2.3824 1073.93 2.3824C1086.71 2.3824 1099.51 1.99129 1112.24 3.05612" stroke="#05151F" stroke-opacity="0.12" stroke-linecap="round"/>
<path d="M34.0088 27.2663C46.7856 27.2663 58.2265 22.4342 70.0253 18.563C89.1239 12.2968 107.598 9.41294 127.674 8.40058C141.954 7.68053 155.979 6.62866 170.373 6.62866C179.647 6.62866 188.857 7.56674 198.122 7.56674" stroke="#05151F" stroke-opacity="0.12" stroke-linecap="round"/>
<path d="M262.344 6.62844C272.023 6.62844 281.379 8.50459 290.998 8.50459C297.811 8.50459 304.78 8.9346 311.442 7.35805C319.796 5.38116 327.142 2.05451 335.736 1" stroke="#05151F" stroke-opacity="0.12" stroke-linecap="round"/>
<path d="M51.3438 218.631C58.3206 216.758 64.9953 213.216 71.3907 210.188C88.2211 202.219 104.853 194.048 122.357 187.362C156.71 174.239 193.591 165.145 229.727 157.239C270.012 148.425 310.631 137.38 352.048 134.204" stroke="#05151F" stroke-opacity="0.12" stroke-linecap="round"/>
<path d="M335.737 162.348C354.284 165.509 372.573 165.388 391.348 163.287C410.919 161.096 428.3 155.024 446.562 148.694C460.148 143.985 476.223 138.683 490.676 137.021" stroke="#05151F" stroke-opacity="0.12" stroke-linecap="round"/>
<path d="M507.742 126.314C520.005 127.613 530.683 133.562 542.593 136.268C552.67 138.558 562.656 140.803 572.282 144.465C582.995 148.539 593.212 154.089 603.139 159.558C616.242 166.775 628.788 176.299 639.58 186.23C645.033 191.249 651.276 195.757 656.616 200.672" stroke="#05151F" stroke-opacity="0.12" stroke-linecap="round"/>
<path d="M724.431 200.503C781.028 221.663 842.952 229.122 903.446 236.777C930.964 240.259 960.144 238.172 987.71 238.172C1036.39 238.172 1085.07 238.172 1133.75 238.172" stroke="#05151F" stroke-opacity="0.12" stroke-linecap="round"/>
<path d="M671.701 187.543C687.169 188.255 702.117 186.83 717.516 185.475C732.91 184.12 748.245 183.94 763.693 183.94" stroke="#05151F" stroke-opacity="0.12" stroke-linecap="round"/>
<path d="M793.521 237.572C807.172 242.861 818.794 253.623 831.468 260.723C850.588 271.434 875.615 277.753 897.453 280.383C918.489 282.916 939.55 282.59 960.697 283.099C973.37 283.404 985.881 285.174 998.573 285.297C1006.96 285.379 1015.35 285.297 1023.73 285.297" stroke="#05151F" stroke-opacity="0.12" stroke-linecap="round"/>
<path d="M1079.74 255.461C1087.29 256.725 1094.4 261.954 1101.92 264.055C1118.89 268.797 1136.92 263.999 1153.02 258.684C1167.86 253.788 1182.16 248.309 1195.44 240.42C1200.78 237.25 1208.91 235.423 1212.82 231.825" stroke="#05151F" stroke-opacity="0.12" stroke-linecap="round"/>
<path d="M825.84 199.502C833.918 199.502 841.754 201.264 849.887 201.017C861.907 200.653 873.492 199.049 885.564 199.849C900.034 200.808 914.015 203.82 927.725 208.026" stroke="#05151F" stroke-opacity="0.12" stroke-linecap="round"/>
<path d="M9.13477 301.549C22.2372 282.709 42.6492 266.985 63.1284 255.327C71.3269 250.66 81.2267 242.834 90.2821 239.727C96.306 237.66 103.212 236.884 109.431 235.249" stroke="#05151F" stroke-opacity="0.12" stroke-linecap="round"/>
<path d="M19.8066 348.776C30.8523 348.157 39.7697 345.781 49.2768 340.236C66.3294 330.29 81.3468 317.83 98.7337 308.235C134.726 288.373 175.89 276.167 216.512 267.179C256.082 258.424 295.78 250.421 335.464 242.169C351.121 238.914 366.614 235.072 382.422 232.457C390.454 231.128 398.336 230.005 406.182 227.999" stroke="#05151F" stroke-opacity="0.12" stroke-linecap="round"/>
<path d="M62.9453 300.634C81.7012 300.634 98.2272 288.347 113.932 280.27C124.053 275.065 134.463 271.527 144.626 266.851" stroke="#05151F" stroke-opacity="0.12" stroke-linecap="round"/>
<path d="M240.535 241.496C255.991 238.829 270.388 233.218 285.119 228.346C299.698 223.525 314.221 218.608 329.035 214.406C341.86 210.769 355.093 208.446 368.527 208.315C392.352 208.081 416.27 207.963 440.065 209.135C471.222 210.669 501.326 218.472 531.461 225.564C539.842 227.537 547.973 230.263 556.346 232.241C564.892 234.261 573.558 235.764 581.932 238.333" stroke="#05151F" stroke-opacity="0.12" stroke-linecap="round"/>
<path d="M838.922 357.541C847.978 358.266 855.717 363.002 864.532 364.66C888.975 369.257 913.892 370.132 938.244 375.511C949.924 378.091 960.232 381.481 971.289 385.809C983.121 390.441 995.465 394.461 1006.55 400.461" stroke="#05151F" stroke-opacity="0.12" stroke-linecap="round"/>
<path d="M527.635 239.613C541.786 246.349 556.591 252.44 572.256 255.504C609.367 262.761 648.493 262.947 686.307 262.947" stroke="#05151F" stroke-opacity="0.12" stroke-linecap="round"/>
<path d="M936.589 326.168C956.921 333.398 977.153 336.137 998.931 337.333C1021.98 338.6 1045.09 338.802 1068.18 338.922C1083.42 339.002 1098.9 339.492 1114.07 337.835C1148.66 334.059 1180.73 321.127 1214.67 314.878" stroke="#05151F" stroke-opacity="0.12" stroke-linecap="round"/>
<path d="M752.975 286.559C758.259 288.788 763.076 292.442 768.04 295.23C774.515 298.868 780.83 301.973 788.165 303.902C799.683 306.93 811.521 309.398 823.356 311.075C831.625 312.247 840.095 312.518 848.251 314.019" stroke="#05151F" stroke-opacity="0.12" stroke-linecap="round"/>
<path d="M1088.54 401C1090.08 400.498 1091.39 399.541 1092.73 398.714C1097 396.09 1101.29 393.498 1105.93 391.46C1119.31 385.585 1134.67 383.574 1149.24 381.781C1154.09 381.184 1158.83 381.131 1163.72 381.131" stroke="#05151F" stroke-opacity="0.12" stroke-linecap="round"/>
</svg>
