<svg width="60" height="58" viewBox="0 0 60 58" fill="none" xmlns="http://www.w3.org/2000/svg">
<rect width="60" height="58" rx="5" fill="#F3FF65" fill-opacity="0.2"/>
<path d="M37 26H40V28H37C36.448 28 36 27.552 36 27C36 26.448 36.448 26 37 26ZM23 33H24V17.1C21.672 17.575 20 19.624 20 22V34.025C20.699 33.498 21.525 33.165 22.395 33.061C22.594 33.02 22.797 33 23 33ZM20 38C20 39.657 21.343 41 23 41H35C37.761 41 40 38.761 40 36V35H23C21.343 35 20 36.343 20 38ZM37 30C35.346 30 34 28.654 34 27C34 25.346 35.346 24 37 24H40V22C40 19.239 37.761 17 35 17H26V33H40V30H37Z" fill="#F3FF65"/>
</svg>
