<svg width="128" height="25" viewBox="0 0 128 25" fill="none" xmlns="http://www.w3.org/2000/svg">
<path d="M11.0489 3.42705C11.3483 2.50574 12.6517 2.50574 12.9511 3.42705L14.4697 8.10081C14.6035 8.51284 14.9875 8.7918 15.4207 8.7918H20.335C21.3037 8.7918 21.7065 10.0314 20.9228 10.6008L16.947 13.4894C16.5966 13.744 16.4499 14.1954 16.5838 14.6074L18.1024 19.2812C18.4017 20.2025 17.3472 20.9686 16.5635 20.3992L12.5878 17.5106C12.2373 17.256 11.7627 17.256 11.4122 17.5106L7.43648 20.3992C6.65276 20.9686 5.59828 20.2025 5.89763 19.2812L7.41623 14.6074C7.5501 14.1954 7.40345 13.744 7.05296 13.4894L3.07722 10.6008C2.29351 10.0314 2.69628 8.7918 3.66501 8.7918H8.57929C9.01252 8.7918 9.39647 8.51284 9.53035 8.10081L11.0489 3.42705Z" fill="#2FB3E3"/>
<path d="M37.0489 3.42705C37.3483 2.50574 38.6517 2.50574 38.9511 3.42705L40.4697 8.10081C40.6035 8.51284 40.9875 8.7918 41.4207 8.7918H46.335C47.3037 8.7918 47.7065 10.0314 46.9228 10.6008L42.947 13.4894C42.5966 13.744 42.4499 14.1954 42.5838 14.6074L44.1024 19.2812C44.4017 20.2025 43.3472 20.9686 42.5635 20.3992L38.5878 17.5106C38.2373 17.256 37.7627 17.256 37.4122 17.5106L33.4365 20.3992C32.6528 20.9686 31.5983 20.2025 31.8976 19.2812L33.4162 14.6074C33.5501 14.1954 33.4034 13.744 33.053 13.4894L29.0772 10.6008C28.2935 10.0314 28.6963 8.7918 29.665 8.7918H34.5793C35.0125 8.7918 35.3965 8.51284 35.5303 8.10081L37.0489 3.42705Z" fill="#2FB3E3"/>
<path d="M63.0489 3.42705C63.3483 2.50574 64.6517 2.50574 64.9511 3.42705L66.4697 8.10081C66.6035 8.51284 66.9875 8.7918 67.4207 8.7918H72.335C73.3037 8.7918 73.7065 10.0314 72.9228 10.6008L68.947 13.4894C68.5966 13.744 68.4499 14.1954 68.5838 14.6074L70.1024 19.2812C70.4017 20.2025 69.3472 20.9686 68.5635 20.3992L64.5878 17.5106C64.2373 17.256 63.7627 17.256 63.4122 17.5106L59.4365 20.3992C58.6528 20.9686 57.5983 20.2025 57.8976 19.2812L59.4162 14.6074C59.5501 14.1954 59.4034 13.744 59.053 13.4894L55.0772 10.6008C54.2935 10.0314 54.6963 8.7918 55.665 8.7918H60.5793C61.0125 8.7918 61.3965 8.51284 61.5303 8.10081L63.0489 3.42705Z" fill="#2FB3E3"/>
<path d="M89.0489 3.42705C89.3483 2.50574 90.6517 2.50574 90.9511 3.42705L92.4697 8.10081C92.6035 8.51284 92.9875 8.7918 93.4207 8.7918H98.335C99.3037 8.7918 99.7065 10.0314 98.9228 10.6008L94.947 13.4894C94.5966 13.744 94.4499 14.1954 94.5838 14.6074L96.1024 19.2812C96.4017 20.2025 95.3472 20.9686 94.5635 20.3992L90.5878 17.5106C90.2373 17.256 89.7627 17.256 89.4122 17.5106L85.4365 20.3992C84.6528 20.9686 83.5983 20.2025 83.8976 19.2812L85.4162 14.6074C85.5501 14.1954 85.4034 13.744 85.053 13.4894L81.0772 10.6008C80.2935 10.0314 80.6963 8.7918 81.665 8.7918H86.5793C87.0125 8.7918 87.3965 8.51284 87.5303 8.10081L89.0489 3.42705Z" fill="#2FB3E3"/>
<path d="M115.049 3.42705C115.348 2.50574 116.652 2.50574 116.951 3.42705L118.47 8.10081C118.604 8.51284 118.987 8.7918 119.421 8.7918H124.335C125.304 8.7918 125.706 10.0314 124.923 10.6008L120.947 13.4894C120.597 13.744 120.45 14.1954 120.584 14.6074L122.102 19.2812C122.402 20.2025 121.347 20.9686 120.564 20.3992L116.588 17.5106C116.237 17.256 115.763 17.256 115.412 17.5106L111.436 20.3992C110.653 20.9686 109.598 20.2025 109.898 19.2812L111.416 14.6074C111.55 14.1954 111.403 13.744 111.053 13.4894L107.077 10.6008C106.294 10.0314 106.696 8.7918 107.665 8.7918H112.579C113.013 8.7918 113.396 8.51284 113.53 8.10081L115.049 3.42705Z" fill="#2FB3E3" fill-opacity="0.3"/>
</svg>
