<svg width="60" height="58" viewBox="0 0 60 58" fill="none" xmlns="http://www.w3.org/2000/svg">
<rect width="60" height="58" rx="5" fill="#FFFB92" fill-opacity="0.2"/>
<g clip-path="url(#clip0_1013_331)">
<path d="M32 24V17.46C32.913 17.806 33.753 18.339 34.465 19.05L37.949 22.536C38.661 23.247 39.194 24.087 39.54 25H33C32.448 25 32 24.551 32 24ZM31 36H34V34H31V36ZM26 32H29V30H26V32ZM26 36H29V34H26V36ZM39.976 27H33C31.346 27 30 25.654 30 24V17.024C29.839 17.013 29.678 17 29.515 17H25C22.243 17 20 19.243 20 22V36C20 38.757 22.243 41 25 41H35C37.757 41 40 38.757 40 36V27.485C40 27.322 39.987 27.161 39.976 27ZM36 36C36 37.103 35.103 38 34 38H26C24.897 38 24 37.103 24 36V30C24 28.897 24.897 28 26 28H29C30.103 28 31 28.897 31 30V32H34C35.103 32 36 32.897 36 34V36Z" fill="#FFFB92"/>
</g>
<defs>
<clipPath id="clip0_1013_331">
<rect width="24" height="24" fill="white" transform="translate(18 17)"/>
</clipPath>
</defs>
</svg>
