<svg width="60" height="58" viewBox="0 0 60 58" fill="none" xmlns="http://www.w3.org/2000/svg">
<rect width="60" height="58" rx="5" fill="#2FB3E3" fill-opacity="0.2"/>
<path d="M34.914 18H37C37.621 18 38.215 18.114 38.764 18.322L33.086 24H28.914L34.914 18ZM42 24V23C42 21.6 41.421 20.332 40.49 19.424L35.914 24H42ZM28.522 18L22.438 24H26.086L32.086 18H28.522ZM19.59 24L25.674 18H23C20.243 18 18 20.243 18 23V24H19.59ZM42 26V35C42 37.757 39.757 40 37 40H23C20.243 40 18 37.757 18 35V26H42ZM33.047 32.2L28.413 29.72C27.791 29.347 27 29.795 27 30.52V35.481C27 36.206 27.791 36.654 28.413 36.281L33.047 33.801C33.651 33.439 33.651 32.563 33.047 32.201V32.2Z" fill="#2FB3E3"/>
</svg>
