<svg width="24" height="25" viewBox="0 0 24 25" fill="none" xmlns="http://www.w3.org/2000/svg">
<g clip-path="url(#clip0_850_1003)">
<path d="M11.1221 12.6601C10.8435 12.3813 10.5127 12.1602 10.1486 12.0093C9.78448 11.8584 9.39421 11.7808 9.00008 11.7808C8.60596 11.7808 8.21569 11.8584 7.85159 12.0093C7.48749 12.1602 7.15669 12.3813 6.87809 12.6601L0.0380859 19.5001C0.130547 20.7542 0.692994 21.9272 1.61296 22.7845C2.53292 23.6418 3.7426 24.1202 5.00009 24.1241H19.0001C19.9798 24.1239 20.9376 23.8341 21.7531 23.2911L11.1221 12.6601Z" fill="#B061FF"/>
<path d="M18 8.12402C19.1046 8.12402 20 7.22859 20 6.12402C20 5.01945 19.1046 4.12402 18 4.12402C16.8954 4.12402 16 5.01945 16 6.12402C16 7.22859 16.8954 8.12402 18 8.12402Z" fill="#B061FF"/>
<path d="M19 0.124023H5C3.67441 0.125611 2.40356 0.652905 1.46622 1.59024C0.528882 2.52758 0.00158786 3.79843 0 5.12402L0 16.71L5.464 11.246C5.92831 10.7816 6.47956 10.4132 7.08628 10.1618C7.69299 9.91046 8.34328 9.78109 9 9.78109C9.65672 9.78109 10.307 9.91046 10.9137 10.1618C11.5204 10.4132 12.0717 10.7816 12.536 11.246L23.167 21.877C23.71 21.0615 23.9998 20.1037 24 19.124V5.12402C23.9984 3.79843 23.4711 2.52758 22.5338 1.59024C21.5964 0.652905 20.3256 0.125611 19 0.124023ZM18 10.124C17.2089 10.124 16.4355 9.88943 15.7777 9.4499C15.1199 9.01038 14.6072 8.38566 14.3045 7.65476C14.0017 6.92385 13.9225 6.11959 14.0769 5.34366C14.2312 4.56774 14.6122 3.85501 15.1716 3.2956C15.731 2.73619 16.4437 2.35522 17.2196 2.20088C17.9956 2.04654 18.7998 2.12576 19.5307 2.42851C20.2616 2.73126 20.8864 3.24395 21.3259 3.90174C21.7654 4.55954 22 5.3329 22 6.12402C22 7.18489 21.5786 8.20231 20.8284 8.95245C20.0783 9.7026 19.0609 10.124 18 10.124Z" fill="#B061FF"/>
</g>
<defs>
<clipPath id="clip0_850_1003">
<rect width="24" height="24" fill="white" transform="translate(0 0.124023)"/>
</clipPath>
</defs>
</svg>
