<svg width="60" height="58" viewBox="0 0 60 58" fill="none" xmlns="http://www.w3.org/2000/svg">
<rect width="60" height="58" rx="5" fill="#20C997" fill-opacity="0.2"/>
<g clip-path="url(#clip0_1013_282)">
<path d="M39.976 27H33C31.346 27 30 25.654 30 24V17.024C29.839 17.013 29.678 17 29.515 17H25C22.243 17 20 19.243 20 22V36C20 38.757 22.243 41 25 41H35C37.757 41 40 38.757 40 36V28.5C40 28.337 39.987 27.161 39.976 27ZM26.293 34.789L28.312 36.808C28.703 37.199 28.703 37.831 28.312 38.222C28.117 38.417 27.861 38.515 27.605 38.515C27.349 38.515 27.093 38.417 26.898 38.222L24.879 36.203C23.709 35.034 23.709 33.13 24.879 31.96L26.941 29.898C27.332 29.507 27.964 29.507 28.355 29.898C28.746 30.288 28.746 30.921 28.355 31.312L26.293 33.374C25.903 33.764 25.903 34.398 26.293 34.789ZM35.121 36.203L33.102 38.222C32.907 38.417 32.651 38.515 32.395 38.515C32.139 38.515 31.883 38.417 31.688 38.222C31.297 37.831 31.297 37.199 31.688 36.808L33.707 34.789C34.097 34.399 34.097 33.765 33.707 33.374L31.645 31.312C31.254 30.921 31.254 30.288 31.645 29.898C32.036 29.507 32.668 29.507 33.059 29.898L35.121 31.96C36.291 33.129 36.291 35.033 35.121 36.203ZM32 24V17.46C32.913 17.806 33.753 18.339 34.465 19.05L37.949 22.536C38.661 23.247 39.194 24.087 39.54 25H33C32.448 25 32 24.551 32 24Z" fill="#20C997"/>
</g>
<defs>
<clipPath id="clip0_1013_282">
<rect width="24" height="24" fill="white" transform="translate(18 17)"/>
</clipPath>
</defs>
</svg>
