<svg width="20" height="20" viewBox="0 0 20 20" fill="none" xmlns="http://www.w3.org/2000/svg">
<path d="M10.0003 0C6.90533 0 1.66699 0.614167 1.66699 2.91667C1.66699 2.925 1.67033 2.9325 1.67033 2.94083C1.67033 2.94667 1.66699 2.95167 1.66699 2.95833V17.0833C1.66699 19.3858 6.90533 20 10.0003 20C12.8828 20 18.3337 19.3817 18.3337 17.0417V2.91667C18.3337 0.614167 13.0953 0 10.0003 0ZM16.667 13.645C16.3187 14.1333 13.807 15 10.0003 15C6.19366 15 3.68616 14.1592 3.33366 13.685V8.11333C5.13283 8.90917 8.00783 9.16667 10.0003 9.16667C11.8737 9.16667 14.8253 8.90167 16.667 8.07583V13.645ZM16.667 6.145C16.3187 6.63333 13.807 7.5 10.0003 7.5C6.19366 7.5 3.68616 6.65917 3.33366 6.185V4.78C5.13283 5.57583 8.00783 5.83333 10.0003 5.83333C11.9928 5.83333 14.8678 5.575 16.667 4.77917V6.145ZM10.0003 1.66667C13.9553 1.66667 16.1637 2.48833 16.6145 2.91667C16.1628 3.345 13.9553 4.16667 10.0003 4.16667C6.04533 4.16667 3.83699 3.345 3.38616 2.91667C3.83699 2.48833 6.04533 1.66667 10.0003 1.66667ZM10.0003 18.3333C6.19866 18.3333 3.68866 17.4942 3.33366 17.0192V15.6133C5.13283 16.4092 8.00783 16.6667 10.0003 16.6667C11.8737 16.6667 14.8253 16.4017 16.667 15.5758V16.98C16.3153 17.4683 13.8037 18.3333 10.0003 18.3333Z" fill="white" fill-opacity="0.7"/>
</svg>
