<svg width="36" height="36" viewBox="0 0 36 36" fill="none" xmlns="http://www.w3.org/2000/svg">
<rect width="36" height="36" rx="5" fill="#E84949" fill-opacity="0.1"/>
<path d="M23.9997 12.6667H21.933C21.7783 11.9143 21.3689 11.2382 20.7738 10.7525C20.1788 10.2667 19.4345 10.001 18.6663 10H17.333C16.5649 10.001 15.8206 10.2667 15.2255 10.7525C14.6305 11.2382 14.2211 11.9143 14.0663 12.6667H11.9997C11.8229 12.6667 11.6533 12.7369 11.5283 12.8619C11.4032 12.987 11.333 13.1565 11.333 13.3333C11.333 13.5101 11.4032 13.6797 11.5283 13.8047C11.6533 13.9298 11.8229 14 11.9997 14H12.6663V22.6667C12.6674 23.5504 13.0189 24.3976 13.6438 25.0225C14.2687 25.6474 15.1159 25.9989 15.9997 26H19.9997C20.8834 25.9989 21.7306 25.6474 22.3555 25.0225C22.9804 24.3976 23.3319 23.5504 23.333 22.6667V14H23.9997C24.1765 14 24.3461 13.9298 24.4711 13.8047C24.5961 13.6797 24.6663 13.5101 24.6663 13.3333C24.6663 13.1565 24.5961 12.987 24.4711 12.8619C24.3461 12.7369 24.1765 12.6667 23.9997 12.6667ZM17.333 11.3333H18.6663C19.0799 11.3338 19.4831 11.4623 19.8207 11.701C20.1584 11.9397 20.414 12.277 20.5523 12.6667H15.447C15.5854 12.277 15.8409 11.9397 16.1786 11.701C16.5163 11.4623 16.9195 11.3338 17.333 11.3333ZM21.9997 22.6667C21.9997 23.1971 21.789 23.7058 21.4139 24.0809C21.0388 24.456 20.5301 24.6667 19.9997 24.6667H15.9997C15.4692 24.6667 14.9605 24.456 14.5855 24.0809C14.2104 23.7058 13.9997 23.1971 13.9997 22.6667V14H21.9997V22.6667Z" fill="#E84949"/>
<path d="M16.6667 22.0001C16.8435 22.0001 17.013 21.9298 17.1381 21.8048C17.2631 21.6798 17.3333 21.5102 17.3333 21.3334V17.3334C17.3333 17.1566 17.2631 16.987 17.1381 16.862C17.013 16.737 16.8435 16.6667 16.6667 16.6667C16.4899 16.6667 16.3203 16.737 16.1953 16.862C16.0702 16.987 16 17.1566 16 17.3334V21.3334C16 21.5102 16.0702 21.6798 16.1953 21.8048C16.3203 21.9298 16.4899 22.0001 16.6667 22.0001Z" fill="#E84949"/>
<path d="M19.3337 21.9998C19.5105 21.9998 19.68 21.9296 19.8051 21.8046C19.9301 21.6796 20.0003 21.51 20.0003 21.3332V17.3332C20.0003 17.1564 19.9301 16.9868 19.8051 16.8618C19.68 16.7367 19.5105 16.6665 19.3337 16.6665C19.1568 16.6665 18.9873 16.7367 18.8623 16.8618C18.7372 16.9868 18.667 17.1564 18.667 17.3332V21.3332C18.667 21.51 18.7372 21.6796 18.8623 21.8046C18.9873 21.9296 19.1568 21.9998 19.3337 21.9998Z" fill="#E84949"/>
</svg>
