<svg width="20" height="20" viewBox="0 0 20 20" fill="none" xmlns="http://www.w3.org/2000/svg">
<g clip-path="url(#clip0_850_733)">
<path d="M12.4997 20H7.4997V17.0725C6.63075 16.7651 5.82591 16.3001 5.12553 15.7008L2.58887 17.1667L0.0888672 12.8333L2.6247 11.3708C2.45813 10.4645 2.45813 9.53546 2.6247 8.62917L0.0888672 7.16667L2.58887 2.83333L5.12553 4.29917C5.82591 3.69994 6.63075 3.23495 7.4997 2.9275V0H12.4997V2.9275C13.3687 3.23495 14.1735 3.69994 14.8739 4.29917L17.4105 2.83333L19.9105 7.16667L17.3747 8.62917C17.5413 9.53546 17.5413 10.4645 17.3747 11.3708L19.9105 12.8333L17.4105 17.1667L14.8739 15.7017C14.1734 16.3006 13.3686 16.7653 12.4997 17.0725V20ZM9.16637 18.3333H10.833V15.8108L11.4589 15.6492C12.4855 15.3832 13.42 14.8418 14.1614 14.0833L14.6139 13.6225L16.7997 14.885L17.633 13.4417L15.4497 12.1808L15.6214 11.5592C15.9036 10.5366 15.9036 9.45672 15.6214 8.43417L15.4497 7.8125L17.633 6.55167L16.7997 5.10833L14.6139 6.37417L14.1614 5.91667C13.4196 5.15945 12.4852 4.61918 11.4589 4.35417L10.833 4.18917V1.66667H9.16637V4.18917L8.54053 4.35083C7.51386 4.61679 6.57937 5.15824 5.83803 5.91667L5.38553 6.3775L3.1997 5.11167L2.36637 6.555L4.5497 7.81583L4.37803 8.4375C4.09583 9.46005 4.09583 10.5399 4.37803 11.5625L4.5497 12.1842L2.36637 13.445L3.1997 14.8883L5.38553 13.6258L5.83803 14.0867C6.57977 14.8439 7.51422 15.3841 8.54053 15.6492L9.16637 15.8108V18.3333ZM9.9997 13.3333C9.34043 13.3333 8.69596 13.1378 8.1478 12.7716C7.59964 12.4053 7.17239 11.8847 6.9201 11.2756C6.66781 10.6665 6.6018 9.9963 6.73042 9.3497C6.85903 8.7031 7.1765 8.10915 7.64268 7.64298C8.10885 7.1768 8.7028 6.85933 9.3494 6.73072C9.996 6.6021 10.6662 6.66811 11.2753 6.9204C11.8844 7.17269 12.405 7.59994 12.7713 8.1481C13.1375 8.69626 13.333 9.34073 13.333 10C13.333 10.8841 12.9818 11.7319 12.3567 12.357C11.7316 12.9821 10.8838 13.3333 9.9997 13.3333ZM9.9997 8.33333C9.67006 8.33333 9.34783 8.43108 9.07375 8.61422C8.79967 8.79735 8.58605 9.05765 8.4599 9.36219C8.33376 9.66674 8.30075 10.0018 8.36506 10.3252C8.42937 10.6485 8.5881 10.9454 8.82119 11.1785C9.05428 11.4116 9.35125 11.5703 9.67455 11.6346C9.99785 11.699 10.333 11.6659 10.6375 11.5398C10.942 11.4137 11.2023 11.2 11.3855 10.926C11.5686 10.6519 11.6664 10.3296 11.6664 10C11.6664 9.55797 11.4908 9.13405 11.1782 8.82149C10.8657 8.50893 10.4417 8.33333 9.9997 8.33333Z" fill="white" fill-opacity="0.7"/>
</g>
<defs>
<clipPath id="clip0_850_733">
<rect width="20" height="20" fill="white"/>
</clipPath>
</defs>
</svg>
