<svg width="60" height="58" viewBox="0 0 60 58" fill="none" xmlns="http://www.w3.org/2000/svg">
<rect width="60" height="58" rx="5" fill="#E83E8C" fill-opacity="0.2"/>
<g clip-path="url(#clip0_1013_315)">
<path d="M36.313 26.396L21.71 41H18V37.29L32.604 22.687L36.314 26.397L36.313 26.396ZM41.232 17.768C40.208 16.744 38.547 16.744 37.522 17.768L34.018 21.272L37.728 24.982L41.232 21.478C42.256 20.454 42.256 18.793 41.232 17.768ZM24.667 27.795L28.377 24.085L22.478 17.768C21.454 16.744 19.793 16.744 18.768 17.768C17.744 18.793 17.744 20.454 18.768 21.478L24.667 27.795ZM41.644 39.593C40.927 36.757 39.125 32.001 35.104 32.001C32.841 32.001 31 34.02 31 36.501C31 39.036 33.511 41.001 35.671 41.001H42L41.644 39.593Z" fill="#E83E8C"/>
</g>
<defs>
<clipPath id="clip0_1013_315">
<rect width="24" height="24" fill="white" transform="translate(18 17)"/>
</clipPath>
</defs>
</svg>
