<svg width="20" height="20" viewBox="0 0 20 20" fill="none" xmlns="http://www.w3.org/2000/svg">
<g clip-path="url(#clip0_850_680)">
<path d="M18.3333 4.77009V1.66675C18.3333 1.20675 17.9608 0.833421 17.5 0.833421C17.0392 0.833421 16.6667 1.20675 16.6667 1.66675V3.63842L12.3308 0.712588C10.915 -0.242412 9.085 -0.242412 7.66917 0.712588L1.83583 4.64925C0.686667 5.42509 0 6.71592 0 8.10342V15.8334C0 18.1309 1.86917 20.0001 4.16667 20.0001H5.83333C6.29417 20.0001 6.66667 19.6268 6.66667 19.1668V11.6668C6.66667 11.2076 7.04 10.8334 7.5 10.8334H12.5C12.96 10.8334 13.3333 11.2076 13.3333 11.6668V19.1668C13.3333 19.6268 13.7058 20.0001 14.1667 20.0001H15.8333C18.1308 20.0001 20 18.1309 20 15.8334V8.10342C20 6.78592 19.38 5.55509 18.3333 4.77009Z" fill="#2FB3E3"/>
</g>
<defs>
<clipPath id="clip0_850_680">
<rect width="20" height="20" fill="white"/>
</clipPath>
</defs>
</svg>
