<svg width="20" height="21" viewBox="0 0 20 21" fill="none" xmlns="http://www.w3.org/2000/svg">
<g clip-path="url(#clip0_850_1064)">
<path d="M0 18.0002V7.16683C0 5.3285 1.495 3.8335 3.33333 3.8335H5C5.38667 3.8335 5.77333 3.92433 6.11833 4.09683L8.7475 5.41183C8.8625 5.46933 8.99167 5.49933 9.12 5.49933H13.3333C15.6308 5.49933 17.5 7.3685 17.5 9.666H8.35333C6.155 9.666 4.18417 11.1377 3.55833 13.2518L1.33083 21.0343C0.516667 20.2735 0 19.1993 0 18.0002ZM19.5775 12.181C19.1783 11.6452 18.57 11.3377 17.9042 11.3268C17.8917 11.3268 17.8817 11.3335 17.8692 11.3335H8.35333C6.88833 11.3335 5.57417 12.3143 5.15833 13.7185L2.81 21.921C3.2375 22.0693 3.68917 22.1668 4.16667 22.1668H14.6317C16.4867 22.1668 18.09 20.9735 18.6333 19.161L19.91 14.0643C20.105 13.4127 19.9833 12.7268 19.5775 12.181Z" fill="#2FB3E3"/>
</g>
<defs>
<clipPath id="clip0_850_1064">
<rect width="20" height="20" fill="white" transform="translate(0 0.217529)"/>
</clipPath>
</defs>
</svg>
