<svg width="15" height="16" viewBox="0 0 15 16" fill="none" xmlns="http://www.w3.org/2000/svg">
<g clip-path="url(#clip0_850_1145)">
<path d="M6.25 4.25H14.375C14.5408 4.25 14.6997 4.18415 14.8169 4.06694C14.9342 3.94973 15 3.79076 15 3.625C15 3.45924 14.9342 3.30027 14.8169 3.18306C14.6997 3.06585 14.5408 3 14.375 3H6.25C6.08424 3 5.92527 3.06585 5.80806 3.18306C5.69085 3.30027 5.625 3.45924 5.625 3.625C5.625 3.79076 5.69085 3.94973 5.80806 4.06694C5.92527 4.18415 6.08424 4.25 6.25 4.25Z" fill="white" fill-opacity="0.8"/>
<path d="M14.375 7.375H6.25C6.08424 7.375 5.92527 7.44085 5.80806 7.55806C5.69085 7.67527 5.625 7.83424 5.625 8C5.625 8.16576 5.69085 8.32473 5.80806 8.44194C5.92527 8.55915 6.08424 8.625 6.25 8.625H14.375C14.5408 8.625 14.6997 8.55915 14.8169 8.44194C14.9342 8.32473 15 8.16576 15 8C15 7.83424 14.9342 7.67527 14.8169 7.55806C14.6997 7.44085 14.5408 7.375 14.375 7.375Z" fill="white" fill-opacity="0.8"/>
<path d="M14.375 11.75H6.25C6.08424 11.75 5.92527 11.8158 5.80806 11.9331C5.69085 12.0503 5.625 12.2092 5.625 12.375C5.625 12.5408 5.69085 12.6997 5.80806 12.8169C5.92527 12.9342 6.08424 13 6.25 13H14.375C14.5408 13 14.6997 12.9342 14.8169 12.8169C14.9342 12.6997 15 12.5408 15 12.375C15 12.2092 14.9342 12.0503 14.8169 11.9331C14.6997 11.8158 14.5408 11.75 14.375 11.75Z" fill="white" fill-opacity="0.8"/>
<path d="M3.80396 4.24991C3.86579 4.24989 3.92623 4.23154 3.97763 4.19716C4.02903 4.16278 4.06907 4.11393 4.09269 4.05678C4.11631 3.99964 4.12245 3.93677 4.11033 3.87613C4.0982 3.8155 4.06836 3.75982 4.02458 3.71616L2.49958 2.19178C2.38238 2.07461 2.22344 2.00879 2.05771 2.00879C1.89198 2.00879 1.73304 2.07461 1.61583 2.19178L0.0914577 3.71616C0.0476788 3.75982 0.0178389 3.8155 0.00571486 3.87613C-0.00640919 3.93677 -0.000272403 3.99964 0.0233485 4.05678C0.0469694 4.11393 0.0870126 4.16278 0.13841 4.19716C0.189807 4.23154 0.250248 4.24989 0.312083 4.24991H1.43333V11.7499H0.312083C0.250195 11.7498 0.189668 11.7681 0.138174 11.8024C0.0866812 11.8367 0.046541 11.8856 0.0228425 11.9427C-0.000855954 11.9999 -0.00704539 12.0628 0.00505885 12.1235C0.0171631 12.1842 0.0470159 12.24 0.0908327 12.2837L1.61583 13.808C1.73304 13.9252 1.89198 13.991 2.05771 13.991C2.22344 13.991 2.38238 13.9252 2.49958 13.808L4.02458 12.2837C4.06836 12.24 4.0982 12.1843 4.11033 12.1237C4.12245 12.063 4.11631 12.0002 4.09269 11.943C4.06907 11.8859 4.02903 11.837 3.97763 11.8027C3.92623 11.7683 3.86579 11.7499 3.80396 11.7499H2.68333V4.24991H3.80396Z" fill="white" fill-opacity="0.8"/>
</g>
<defs>
<clipPath id="clip0_850_1145">
<rect width="15" height="15" fill="white" transform="translate(0 0.5)"/>
</clipPath>
</defs>
</svg>
