<svg width="60" height="58" viewBox="0 0 60 58" fill="none" xmlns="http://www.w3.org/2000/svg">
<rect width="60" height="58" rx="5" fill="#B061FF" fill-opacity="0.2"/>
<g clip-path="url(#clip0_1013_247)">
<path d="M29.1221 29.5356C28.8435 29.2568 28.5127 29.0357 28.1486 28.8848C27.7845 28.7339 27.3942 28.6562 27.0001 28.6562C26.606 28.6562 26.2157 28.7339 25.8516 28.8848C25.4875 29.0357 25.1567 29.2568 24.8781 29.5356L18.0381 36.3756C18.1305 37.6297 18.693 38.8027 19.613 39.66C20.5329 40.5173 21.7426 40.9957 23.0001 40.9996H37.0001C37.9798 40.9994 38.9376 40.7096 39.7531 40.1666L29.1221 29.5356Z" fill="#B061FF"/>
<path d="M35.999 25C37.1036 25 37.999 24.1046 37.999 23C37.999 21.8954 37.1036 21 35.999 21C34.8945 21 33.999 21.8954 33.999 23C33.999 24.1046 34.8945 25 35.999 25Z" fill="#B061FF"/>
<path d="M37 17H23C21.6744 17.0016 20.4036 17.5289 19.4662 18.4662C18.5289 19.4036 18.0016 20.6744 18 22V33.586L23.464 28.122C23.9283 27.6576 24.4796 27.2892 25.0863 27.0378C25.693 26.7864 26.3433 26.6571 27 26.6571C27.6567 26.6571 28.307 26.7864 28.9137 27.0378C29.5204 27.2892 30.0717 27.6576 30.536 28.122L41.167 38.753C41.71 37.9375 41.9998 36.9797 42 36V22C41.9984 20.6744 41.4711 19.4036 40.5338 18.4662C39.5964 17.5289 38.3256 17.0016 37 17ZM36 27C35.2089 27 34.4355 26.7654 33.7777 26.3259C33.1199 25.8864 32.6072 25.2616 32.3045 24.5307C32.0017 23.7998 31.9225 22.9956 32.0769 22.2196C32.2312 21.4437 32.6122 20.731 33.1716 20.1716C33.731 19.6122 34.4437 19.2312 35.2196 19.0769C35.9956 18.9225 36.7998 19.0017 37.5307 19.3045C38.2616 19.6072 38.8864 20.1199 39.3259 20.7777C39.7654 21.4355 40 22.2089 40 23C40 24.0609 39.5786 25.0783 38.8284 25.8284C38.0783 26.5786 37.0609 27 36 27Z" fill="#B061FF"/>
</g>
<defs>
<clipPath id="clip0_1013_247">
<rect width="24" height="24" fill="white" transform="translate(18 17)"/>
</clipPath>
</defs>
</svg>
