<svg width="22" height="22" viewBox="0 0 22 22" fill="none" xmlns="http://www.w3.org/2000/svg">
<g clip-path="url(#clip0_1013_170)">
<path d="M19.25 6.41699C19.7542 6.41699 20.1667 6.00449 20.1667 5.50033C20.1667 2.97033 18.1133 0.916992 15.5833 0.916992H4.58333C2.05333 0.916992 0 2.97033 0 5.50033V11.917C0 14.447 2.05333 16.5003 4.58333 16.5003H9.16667V18.3337H6.41667C5.9125 18.3337 5.5 18.7462 5.5 19.2503C5.5 19.7545 5.9125 20.167 6.41667 20.167H10.0833C10.5875 20.167 11 19.7545 11 19.2503V11.917C11 8.88283 13.4658 6.41699 16.5 6.41699H19.25ZM18.3333 8.25033H16.5C14.4742 8.25033 12.8333 9.89116 12.8333 11.917V18.3337C12.8333 20.3595 14.4742 22.0003 16.5 22.0003H18.3333C20.3592 22.0003 22 20.3595 22 18.3337V11.917C22 9.89116 20.3592 8.25033 18.3333 8.25033Z" fill="white"/>
</g>
<defs>
<clipPath id="clip0_1013_170">
<rect width="22" height="22" fill="white"/>
</clipPath>
</defs>
</svg>
