<svg width="20" height="20" viewBox="0 0 20 20" fill="none" xmlns="http://www.w3.org/2000/svg">
<g clip-path="url(#clip0_850_722)">
<path d="M19.3822 13.5L17.2155 5.69081C16.7529 4.02033 15.7447 2.5526 14.3516 1.52122C12.9585 0.489841 11.2604 -0.045916 9.52758 -0.000782941C7.79479 0.0443501 6.1269 0.66778 4.78934 1.77028C3.45178 2.87279 2.52143 4.39101 2.14635 6.08331L0.470519 13.625C0.389429 13.9903 0.391407 14.3693 0.476307 14.7338C0.561206 15.0983 0.72686 15.4391 0.961047 15.731C1.19523 16.0229 1.49198 16.2586 1.82939 16.4205C2.1668 16.5824 2.53626 16.6666 2.91052 16.6666H5.91635C6.10761 17.6086 6.61863 18.4554 7.3628 19.0636C8.10698 19.6719 9.03856 20.0042 9.99969 20.0042C10.9608 20.0042 11.8924 19.6719 12.6366 19.0636C13.3807 18.4554 13.8918 17.6086 14.083 16.6666H16.9747C17.3598 16.6665 17.7396 16.5773 18.0846 16.4062C18.4296 16.2351 18.7303 15.9865 18.9634 15.68C19.1966 15.3735 19.3557 15.0173 19.4285 14.6391C19.5013 14.261 19.4849 13.8711 19.3822 13.5ZM9.99969 18.3333C9.48447 18.3312 8.98249 18.1699 8.56244 17.8716C8.14238 17.5732 7.82475 17.1524 7.65302 16.6666H12.3464C12.1746 17.1524 11.857 17.5732 11.4369 17.8716C11.0169 18.1699 10.5149 18.3312 9.99969 18.3333ZM17.6372 14.6708C17.5594 14.7739 17.4587 14.8573 17.3429 14.9145C17.2271 14.9716 17.0996 15.0009 16.9705 15H2.91052C2.78574 15 2.66255 14.9719 2.55006 14.9179C2.43756 14.8639 2.33863 14.7854 2.26056 14.688C2.1825 14.5907 2.12729 14.477 2.09901 14.3555C2.07073 14.234 2.07011 14.1076 2.09719 13.9858L3.77302 6.44415C4.06831 5.11599 4.79911 3.92465 5.84923 3.05952C6.89936 2.19439 8.20854 1.70512 9.56866 1.66949C10.9288 1.63386 12.2618 2.05391 13.3558 2.86287C14.4498 3.67183 15.2419 4.82327 15.6064 6.13415L17.773 13.9433C17.8084 14.0668 17.8145 14.1968 17.791 14.3231C17.7674 14.4494 17.7147 14.5684 17.6372 14.6708Z" fill="white" fill-opacity="0.7"/>
</g>
<defs>
<clipPath id="clip0_850_722">
<rect width="20" height="20" fill="white"/>
</clipPath>
</defs>
</svg>
