<svg width="22" height="24" viewBox="0 0 22 24" fill="none" xmlns="http://www.w3.org/2000/svg">
<g clip-path="url(#clip0_1013_160)">
<path d="M22 1.22002V4.28002C22 4.67802 21.7048 5.00002 21.34 5.00002H18.535C18.2682 5.00002 18.0272 4.82502 17.9254 4.55602C17.8228 4.28702 17.8796 3.97702 18.0684 3.77102L18.8403 2.92902C18.194 2.34402 17.3736 2.00002 16.5 2.00002C15.0416 2.00002 13.7225 2.94202 13.1377 4.40002C12.936 4.90502 12.3998 5.13802 11.9313 4.91602C11.4675 4.69502 11.2558 4.10502 11.4583 3.59902C12.3347 1.41202 14.3138 -0.000976562 16.5 -0.000976562C17.8695 -0.000976562 19.1574 0.554024 20.1447 1.50502L20.8734 0.709023C21.0623 0.503023 21.3455 0.442023 21.593 0.553023C21.8396 0.664023 22 0.927024 22 1.21802V1.22002ZM21.0687 7.08402C20.6002 6.86502 20.064 7.09602 19.8623 7.60002C19.2775 9.05802 17.9584 10 16.5 10C15.6264 10 14.806 9.65602 14.1597 9.07102L14.9316 8.22902C15.1204 8.02302 15.1772 7.71402 15.0746 7.44402C14.9728 7.17502 14.7318 7.00002 14.465 7.00002H11.66C11.2952 7.00002 11 7.32202 11 7.72002V10.78C11 11.071 11.1604 11.334 11.407 11.445C11.6545 11.556 11.9378 11.495 12.1266 11.289L12.8553 10.494C13.8417 11.445 15.1296 12 16.5 12C18.6872 12 20.6663 10.587 21.5417 8.40002C21.7452 7.89402 21.5325 7.30502 21.0687 7.08402ZM7.79167 9.00102C8.26192 9.00102 8.71933 8.97302 9.16667 8.92702V6.00102C9.16667 3.85002 9.9495 1.90102 11.2154 0.463023C10.1814 0.170023 9.02183 0.00102344 7.79167 0.00102344C3.48883 2.34375e-05 0 2.01502 0 4.50002C0 6.98502 3.48883 9.00002 7.79167 9.00002V9.00102ZM7.79167 14.001C9.23083 14.001 10.5499 13.81 11.6802 13.5C11.6747 13.5 11.6692 13.502 11.6628 13.502C11.3428 13.502 11.0202 13.435 10.7113 13.297C9.81475 12.892 9.22992 11.975 9.17675 10.934C8.72483 10.975 8.26558 11.001 7.79167 11.001C4.51 11.001 1.71967 9.99702 0 8.40102V10.568C0 12.189 3.33208 14.001 7.79167 14.001ZM0 13.827V15.567C0 17.188 3.33208 19.001 7.79167 19.001C12.2513 19.001 15.5833 17.189 15.5833 15.567V13.827C13.8637 15.161 11.0733 16 7.79167 16C4.51 16 1.71967 15.162 0 13.827ZM0 18.827V19.787C0 22.554 3.91967 24.001 7.79167 24.001C11.6637 24.001 15.5833 22.554 15.5833 19.787V18.827C13.8637 20.161 11.0733 21.001 7.79167 21.001C4.51 21.001 1.71967 20.162 0 18.827Z" fill="white"/>
</g>
<defs>
<clipPath id="clip0_1013_160">
<rect width="22" height="24" fill="white"/>
</clipPath>
</defs>
</svg>
