<svg width="54" height="54" viewBox="0 0 54 54" fill="none" xmlns="http://www.w3.org/2000/svg">
<g filter="url(#filter0_b_850_798)">
<rect width="54" height="54" rx="6" fill="#D4D4D4" fill-opacity="0.1"/>
<path d="M24.2144 19.5023C24.2638 19.5015 24.3132 19.5008 24.3641 19.5C25.4614 19.4993 26.4307 20.0854 27.2109 20.9829C27.6211 21.4956 27.8851 22.057 28.1189 22.7069C28.164 22.6905 28.2091 22.6741 28.2556 22.6572C28.3155 22.6356 28.3754 22.6141 28.4354 22.5925C28.465 22.5817 28.4946 22.5709 28.5252 22.5598C29.3147 22.277 30.1378 22.387 30.8657 22.8411C31.071 22.9758 31.2531 23.1317 31.4295 23.3167C31.4524 23.3376 31.4752 23.3584 31.4988 23.3799C31.992 23.842 32.279 24.5772 32.4422 25.2869C32.4422 25.3179 32.4422 25.3489 32.4422 25.3808C32.478 25.3733 32.5137 25.3658 32.5505 25.358C33.5687 25.1844 34.6061 25.449 35.4412 26.1782C35.6083 26.3368 35.7592 26.5122 35.9086 26.6943C35.9398 26.7313 35.971 26.7684 36.0031 26.8066C36.4134 27.3212 36.668 27.9424 36.8434 28.6176C36.8566 28.6667 36.8699 28.7158 36.8835 28.7664C37.1349 29.8934 36.9656 31.1662 36.5074 32.1824C35.9603 33.2593 35.1754 33.9675 34.1842 34.3456C33.7785 34.4629 33.3818 34.4951 32.9657 34.4936C32.9102 34.4938 32.8548 34.4939 32.7993 34.4942C32.6484 34.4946 32.4975 34.4946 32.3465 34.4943C32.1832 34.4942 32.0199 34.4947 31.8565 34.495C31.5371 34.4956 31.2177 34.4957 30.8982 34.4956C30.6384 34.4955 30.3786 34.4956 30.1189 34.4958C30.0633 34.4958 30.0633 34.4958 30.0066 34.4959C29.9313 34.4959 29.856 34.496 29.7807 34.496C29.0755 34.4965 28.3704 34.4964 27.6652 34.4962C27.021 34.4959 26.3768 34.4964 25.7326 34.4973C25.0701 34.4982 24.4075 34.4986 23.745 34.4985C23.3734 34.4984 23.0019 34.4985 22.6304 34.4991C22.3141 34.4997 21.9978 34.4998 21.6816 34.4992C21.5204 34.4989 21.3593 34.4989 21.1981 34.4994C21.0502 34.4999 20.9023 34.4998 20.7544 34.4991C20.6764 34.499 20.5983 34.4995 20.5203 34.5C19.5266 34.493 18.6717 34.046 17.951 33.2295C17.2637 32.3717 16.993 31.3139 17.0001 30.1439C17.0095 29.7198 17.0579 29.3469 17.1744 28.946C17.1881 28.8973 17.2017 28.8487 17.2158 28.7986C17.5446 27.7481 18.2103 26.9638 19.0461 26.4936C19.4509 26.2758 19.8528 26.1867 20.2903 26.1313C20.2795 26.0804 20.2687 26.0295 20.2576 25.977C20.2433 25.9092 20.2291 25.8414 20.2148 25.7736C20.2077 25.7402 20.2006 25.7068 20.1933 25.6723C20.1864 25.6393 20.1795 25.6064 20.1724 25.5724C20.1629 25.5275 20.1629 25.5275 20.1532 25.4816C19.9263 24.2594 20.1405 22.9731 20.6507 21.8973C21.2584 20.7479 22.1473 19.9361 23.2504 19.6108C23.2772 19.6025 23.3039 19.5943 23.3315 19.5858C23.6252 19.5039 23.914 19.5014 24.2144 19.5023Z" fill="#D4D4D4"/>
</g>
<defs>
<filter id="filter0_b_850_798" x="-100" y="-100" width="254" height="254" filterUnits="userSpaceOnUse" color-interpolation-filters="sRGB">
<feFlood flood-opacity="0" result="BackgroundImageFix"/>
<feGaussianBlur in="BackgroundImageFix" stdDeviation="50"/>
<feComposite in2="SourceAlpha" operator="in" result="effect1_backgroundBlur_850_798"/>
<feBlend mode="normal" in="SourceGraphic" in2="effect1_backgroundBlur_850_798" result="shape"/>
</filter>
</defs>
</svg>
