<svg width="22" height="22" viewBox="0 0 22 22" fill="none" xmlns="http://www.w3.org/2000/svg">
<g clip-path="url(#clip0_1013_215)">
<path d="M0.508067 12.4576C0.00980169 11.7246 -0.0897999 10.7912 0.242563 9.96955C0.985364 8.45426 2.2297 7.2428 3.76432 6.54086C4.87541 5.98832 6.07892 5.64565 7.31436 5.52993C6.77605 6.19234 6.23713 6.89909 5.69762 7.65031C4.59959 9.31303 3.6597 11.0749 2.89025 12.9129L2.55905 13.6556C1.72941 13.5869 0.975395 13.1465 0.508067 12.4576ZM1.76989 16.3115C0.9772 17.406 0.408251 18.6462 0.0956962 19.961C-0.099167 20.8153 0.435407 21.6659 1.28975 21.8607C1.52226 21.9137 1.7637 21.9137 1.9962 21.8606C3.30899 21.5475 4.54722 20.9789 5.64025 20.1873C6.71052 19.1175 6.71095 17.3826 5.64116 16.3124C4.57141 15.2421 2.83654 15.2417 1.76628 16.3115H1.76989ZM9.01141 19.0304L8.26328 19.3625V19.6307C8.26509 20.2733 8.52243 20.8888 8.97858 21.3414C9.41248 21.7634 9.99372 21.9997 10.599 22.0002C12.7494 21.9692 14.493 20.0112 15.4081 18.1883C15.9687 17.0601 16.3126 15.8368 16.4218 14.5817C15.7527 15.1291 15.0352 15.6765 14.2695 16.224C12.6074 17.3223 10.8457 18.2619 9.00776 19.0304L9.01141 19.0304ZM21.9489 2.69975C21.8276 6.67131 18.9682 10.61 13.2065 14.7431C11.6386 15.7595 9.98452 16.6363 8.26328 17.3635V16.8498C8.25477 15.0898 6.83006 13.665 5.06997 13.6565H4.55632C5.28516 11.9352 6.16348 10.2812 7.18124 8.71327C11.3042 2.96526 15.2366 0.102207 19.2017 -0.0273438C21.1779 -0.0273438 21.9489 0.777375 21.9489 2.69975ZM16.4747 7.72602C16.4747 6.46631 15.4535 5.44507 14.1937 5.44507C12.9339 5.44507 11.9127 6.46627 11.9127 7.72602C11.9127 8.98574 12.9339 10.007 14.1937 10.007C15.4535 10.007 16.4747 8.98574 16.4747 7.72602Z" fill="white"/>
</g>
<defs>
<clipPath id="clip0_1013_215">
<rect width="22" height="22" fill="white"/>
</clipPath>
</defs>
</svg>
