<svg width="30" height="30" viewBox="0 0 30 30" fill="none" xmlns="http://www.w3.org/2000/svg">
<g clip-path="url(#clip0_850_1680)">
<path d="M22.9811 9.21635C22.76 9.14934 22.5588 9.02902 22.3951 8.86599C22.2314 8.70295 22.1103 8.50218 22.0424 8.28135C21.6596 6.98391 21.0175 5.77762 20.1551 4.73547C19.2926 3.69333 18.2277 2.837 17.0247 2.2183C15.8218 1.59961 14.5058 1.23141 13.1564 1.13599C11.8071 1.04058 10.4524 1.21992 9.17433 1.66317C7.89628 2.10643 6.72145 2.80438 5.72093 3.71479C4.72041 4.62519 3.915 5.72913 3.35344 6.9598C2.79188 8.19046 2.48585 9.52227 2.45387 10.8746C2.42188 12.227 2.6646 13.5718 3.16735 14.8276C3.28243 15.0923 3.30671 15.3876 3.23639 15.6675C3.16607 15.9474 3.00511 16.1962 2.7786 16.3751C1.78326 17.1138 1.00615 18.1079 0.529537 19.2522C0.0529187 20.3964 -0.105483 21.6482 0.0710978 22.8751C0.346664 24.5337 1.20775 26.0385 2.49808 27.1165C3.7884 28.1944 5.42243 28.774 7.1036 28.7501H17.4998V19.2676L15.8836 20.8839C15.6478 21.1116 15.3321 21.2375 15.0043 21.2347C14.6766 21.2318 14.3631 21.1004 14.1313 20.8686C13.8996 20.6369 13.7681 20.3234 13.7653 19.9956C13.7624 19.6679 13.8884 19.3521 14.1161 19.1164L16.0986 17.1339C16.8018 16.4308 17.7555 16.0359 18.7498 16.0359C19.7442 16.0359 20.6979 16.4308 21.4011 17.1339L23.3836 19.1164C23.503 19.2317 23.5982 19.3696 23.6637 19.5221C23.7292 19.6746 23.7637 19.8386 23.7652 20.0046C23.7666 20.1706 23.735 20.3352 23.6721 20.4888C23.6093 20.6424 23.5165 20.782 23.3991 20.8993C23.2817 21.0167 23.1422 21.1095 22.9885 21.1724C22.8349 21.2352 22.6703 21.2669 22.5044 21.2654C22.3384 21.264 22.1744 21.2295 22.0218 21.164C21.8693 21.0985 21.7314 21.0032 21.6161 20.8839L19.9998 19.2676V28.7339C22.4879 28.6841 24.8725 27.7288 26.7067 26.0469C28.5409 24.365 29.6988 22.0721 29.9636 19.5976C30.1622 17.3296 29.5775 15.0621 28.3069 13.173C27.0363 11.284 25.1566 9.88746 22.9811 9.21635Z" fill="white" fill-opacity="0.8"/>
</g>
<defs>
<clipPath id="clip0_850_1680">
<rect width="30" height="30" fill="white"/>
</clipPath>
</defs>
</svg>
