<svg width="22" height="22" viewBox="0 0 22 22" fill="none" xmlns="http://www.w3.org/2000/svg">
<g clip-path="url(#clip0_1013_195)">
<path d="M21.2025 16.5825L19.7267 18.0583C19.5433 18.2417 19.3142 18.3242 19.0758 18.3242C18.8375 18.3242 18.6083 18.2325 18.425 18.0583C18.0675 17.7008 18.0675 17.1233 18.425 16.7658L19.6075 15.5833H12.8242C12.32 15.5833 11.9075 15.1708 11.9075 14.6667C11.9075 14.1625 12.32 13.75 12.8242 13.75H19.6075L18.425 12.5675C18.0675 12.21 18.0675 11.6325 18.425 11.275C18.7825 10.9175 19.36 10.9175 19.7175 11.275L21.1933 12.7508C22.2475 13.805 22.2475 15.5283 21.1933 16.5917L21.2025 16.5825ZM11.9167 7.33333H17.9117C17.5908 6.49917 17.105 5.72917 16.4542 5.07833L13.2642 1.87917C12.6133 1.22833 11.8433 0.7425 11.0092 0.421667V6.41667C11.0092 6.92083 11.4217 7.33333 11.9258 7.33333H11.9167ZM16.3258 17.4167H12.8333C11.3208 17.4167 10.0833 16.1792 10.0833 14.6667C10.0833 13.1542 11.3208 11.9167 12.8333 11.9167H16.3258C16.3258 11.2108 16.5917 10.505 17.1325 9.97333C17.4717 9.63417 17.8842 9.39583 18.315 9.27667V9.16667H11.9167C10.4042 9.16667 9.16667 7.92917 9.16667 6.41667V0.0183333C9.02 0.00916667 8.87333 0 8.7175 0H4.58333C2.05333 0 0 2.05333 0 4.58333V17.4167C0 19.9467 2.05333 22 4.58333 22H13.75C15.4092 22 16.8667 21.1108 17.6733 19.7817C17.4808 19.6625 17.2975 19.525 17.1325 19.36C16.6008 18.8283 16.3258 18.1225 16.3258 17.4167Z" fill="white"/>
</g>
<defs>
<clipPath id="clip0_1013_195">
<rect width="22" height="22" fill="white"/>
</clipPath>
</defs>
</svg>
