<svg width="24" height="25" viewBox="0 0 24 25" fill="none" xmlns="http://www.w3.org/2000/svg">
<g clip-path="url(#clip0_850_1023)">
<path d="M14 7.62451V1.08451C14.9251 1.43385 15.7653 1.97582 16.465 2.67451L19.949 6.16051C20.6485 6.85939 21.1909 7.69941 21.54 8.62451H15C14.7348 8.62451 14.4804 8.51915 14.2929 8.33162C14.1054 8.14408 14 7.88973 14 7.62451ZM22 11.1095V19.6245C21.9984 20.9501 21.4711 22.221 20.5338 23.1583C19.5964 24.0956 18.3256 24.6229 17 24.6245H7C5.67441 24.6229 4.40356 24.0956 3.46622 23.1583C2.52888 22.221 2.00159 20.9501 2 19.6245V5.62451C2.00159 4.29892 2.52888 3.02807 3.46622 2.09073C4.40356 1.15339 5.67441 0.6261 7 0.624512L11.515 0.624512C11.678 0.624512 11.839 0.637512 12 0.648512V7.62451C12 8.42016 12.3161 9.18322 12.8787 9.74583C13.4413 10.3084 14.2044 10.6245 15 10.6245H21.976C21.987 10.7855 22 10.9465 22 11.1095ZM14 19.6245C14 19.3593 13.8946 19.1049 13.7071 18.9174C13.5196 18.7299 13.2652 18.6245 13 18.6245H8C7.73478 18.6245 7.48043 18.7299 7.29289 18.9174C7.10536 19.1049 7 19.3593 7 19.6245C7 19.8897 7.10536 20.1441 7.29289 20.3316C7.48043 20.5192 7.73478 20.6245 8 20.6245H13C13.2652 20.6245 13.5196 20.5192 13.7071 20.3316C13.8946 20.1441 14 19.8897 14 19.6245ZM17 15.6245C17 15.3593 16.8946 15.1049 16.7071 14.9174C16.5196 14.7299 16.2652 14.6245 16 14.6245H8C7.73478 14.6245 7.48043 14.7299 7.29289 14.9174C7.10536 15.1049 7 15.3593 7 15.6245C7 15.8897 7.10536 16.1441 7.29289 16.3316C7.48043 16.5192 7.73478 16.6245 8 16.6245H16C16.2652 16.6245 16.5196 16.5192 16.7071 16.3316C16.8946 16.1441 17 15.8897 17 15.6245Z" fill="#FFC418"/>
</g>
<defs>
<clipPath id="clip0_850_1023">
<rect width="24" height="24" fill="white" transform="translate(0 0.624512)"/>
</clipPath>
</defs>
</svg>
