<svg width="20" height="20" viewBox="0 0 20 20" fill="none" xmlns="http://www.w3.org/2000/svg">
<g clip-path="url(#clip0_850_688)">
<path d="M19.5775 9.1809C19.1717 8.6359 18.5492 8.32256 17.8692 8.32256H17.5V6.66673C17.5 4.36923 15.6308 2.50006 13.3333 2.50006H9.12C8.99167 2.50006 8.86167 2.46923 8.7475 2.41256L6.11833 1.09756C5.77333 0.925062 5.38667 0.834229 5 0.834229H3.33333C1.495 0.833396 0 2.3284 0 4.16673V15.0001C0 17.2976 1.86917 19.1667 4.16667 19.1667H14.6317C16.4867 19.1667 18.09 17.9734 18.6333 16.1609L19.91 11.0642C20.105 10.4126 19.9833 9.72673 19.5775 9.1809ZM1.66667 15.0001V4.16673C1.66667 3.24756 2.41417 2.50006 3.33333 2.50006H5C5.12833 2.50006 5.25833 2.5309 5.3725 2.58756L8.00167 3.90256C8.34667 4.07506 8.73333 4.1659 9.12 4.1659H13.3333C14.7117 4.1659 15.8333 5.28756 15.8333 6.6659V8.32173H7.17917C5.7625 8.32173 4.4975 9.2209 4.02167 10.5884L2.19667 16.5367C1.865 16.1126 1.66667 15.5792 1.66667 15.0001ZM18.3033 10.6226L17.0267 15.7184C16.7067 16.7842 15.7442 17.5001 14.6317 17.5001H4.16667C3.99333 17.5001 3.82417 17.4826 3.66083 17.4484L5.60583 11.1076C5.83833 10.4384 6.47167 9.98923 7.18 9.98923H17.87C18.0717 9.98923 18.1892 10.1059 18.2408 10.1759C18.2925 10.2459 18.3708 10.3917 18.3033 10.6226Z" fill="white" fill-opacity="0.7"/>
</g>
<defs>
<clipPath id="clip0_850_688">
<rect width="20" height="20" fill="white"/>
</clipPath>
</defs>
</svg>
