<svg width="60" height="58" viewBox="0 0 60 58" fill="none" xmlns="http://www.w3.org/2000/svg">
<rect width="60" height="58" rx="5" fill="#9AFEDA" fill-opacity="0.2"/>
<path d="M40.0063 18.6328C39.6955 18.3746 39.3314 18.1883 38.9401 18.0872C38.5489 17.9861 38.1401 17.9727 37.7431 18.048L26.744 20.1077C26.113 20.2259 25.5433 20.561 25.1335 21.055C24.7236 21.5491 24.4995 22.1709 24.5 22.8128V33.1757C23.9451 32.8458 23.3122 32.6699 22.6667 32.6661C21.9415 32.6661 21.2326 32.8811 20.6296 33.284C20.0266 33.6869 19.5566 34.2596 19.2791 34.9296C19.0016 35.5996 18.929 36.3368 19.0705 37.0481C19.2119 37.7593 19.5612 38.4127 20.0739 38.9255C20.5867 39.4383 21.2401 39.7875 21.9513 39.929C22.6626 40.0704 23.3998 39.9978 24.0698 39.7203C24.7398 39.4428 25.3125 38.9728 25.7154 38.3698C26.1183 37.7669 26.3333 37.0579 26.3333 36.3327V26.6344L39.1667 24.2327V30.4303C38.6122 30.0988 37.9793 29.9213 37.3333 29.9161C36.6081 29.9161 35.8992 30.1311 35.2962 30.534C34.6933 30.9369 34.2233 31.5096 33.9458 32.1796C33.6683 32.8496 33.5956 33.5868 33.7371 34.2981C33.8786 35.0093 34.2278 35.6627 34.7406 36.1755C35.2534 36.6883 35.9067 37.0375 36.618 37.179C37.3293 37.3204 38.0665 37.2478 38.7365 36.9703C39.4065 36.6928 39.9792 36.2228 40.3821 35.6198C40.785 35.0169 41 34.3079 41 33.5827V20.7494C41.0001 20.3453 40.9111 19.9461 40.7393 19.5803C40.5676 19.2144 40.3173 18.8909 40.0063 18.6328Z" fill="#9AFEDA"/>
</svg>
