<svg width="24" height="25" viewBox="0 0 24 25" fill="none" xmlns="http://www.w3.org/2000/svg">
<path d="M16.914 1.37402H19C19.621 1.37402 20.215 1.48802 20.764 1.69602L15.086 7.37402H10.914L16.914 1.37402ZM24 7.37402V6.37402C24 4.97402 23.421 3.70602 22.49 2.79802L17.914 7.37402H24ZM10.522 1.37402L4.438 7.37402H8.086L14.086 1.37402H10.522ZM1.59 7.37402L7.674 1.37402H5C2.243 1.37402 0 3.61702 0 6.37402V7.37402H1.59ZM24 9.37402V18.374C24 21.131 21.757 23.374 19 23.374H5C2.243 23.374 0 21.131 0 18.374V9.37402H24ZM15.047 15.574L10.413 13.094C9.791 12.721 9 13.169 9 13.894V18.855C9 19.58 9.791 20.028 10.413 19.655L15.047 17.175C15.651 16.813 15.651 15.937 15.047 15.575V15.574Z" fill="#2FB3E3"/>
</svg>
