<svg width="22" height="22" viewBox="0 0 22 22" fill="none" xmlns="http://www.w3.org/2000/svg">
<g clip-path="url(#clip0_1013_180)">
<path d="M3.66665 0H6.41665C8.44168 0 10.0833 1.64162 10.0833 3.66665V6.41665C10.0833 8.44168 8.44168 10.0833 6.41665 10.0833H3.66665C1.64162 10.0833 0 8.44173 0 6.41665V3.66665C0 1.64162 1.64162 0 3.66665 0Z" fill="white"/>
<path d="M3.66665 11.917H6.41665C8.44168 11.917 10.0833 13.5586 10.0833 15.5836V18.3336C10.0833 20.3587 8.44168 22.0003 6.41665 22.0003H3.66665C1.64162 22.0003 0 20.3587 0 18.3337V15.5837C0 13.5586 1.64162 11.917 3.66665 11.917Z" fill="white"/>
<path d="M15.5836 11.917H18.3336C20.3587 11.917 22.0003 13.5586 22.0003 15.5836V18.3336C22.0003 20.3587 20.3587 22.0003 18.3336 22.0003H15.5836C13.5586 22.0003 11.917 20.3587 11.917 18.3337V15.5837C11.9169 13.5586 13.5586 11.917 15.5836 11.917Z" fill="white"/>
<path d="M12.8336 6.41695H15.5836V9.16695C15.5836 9.67321 15.994 10.0836 16.5003 10.0836C17.0066 10.0836 17.4169 9.67321 17.4169 9.16695V6.41695H20.1669C20.6732 6.41695 21.0836 6.00655 21.0836 5.5003C21.0836 4.99404 20.6732 4.58364 20.1669 4.58364H17.4169V1.83364C17.4169 1.32739 17.0066 0.916992 16.5003 0.916992C15.994 0.916992 15.5836 1.32739 15.5836 1.83364V4.58364H12.8336C12.3274 4.58364 11.917 4.99404 11.917 5.5003C11.917 6.00655 12.3274 6.41695 12.8336 6.41695Z" fill="white"/>
</g>
<defs>
<clipPath id="clip0_1013_180">
<rect width="22" height="22" fill="white"/>
</clipPath>
</defs>
</svg>
