<svg width="60" height="58" viewBox="0 0 60 58" fill="none" xmlns="http://www.w3.org/2000/svg">
<rect width="60" height="58" rx="5" fill="#5370F6" fill-opacity="0.2"/>
<g clip-path="url(#clip0_1013_323)">
<path d="M32 24V17.46C32.913 17.806 33.753 18.339 34.465 19.05L37.949 22.536C38.661 23.247 39.194 24.087 39.54 25H33C32.448 25 32 24.551 32 24ZM40 27.485V36C40 38.757 37.757 41 35 41H25C22.243 41 20 38.757 20 36V22C20 19.243 22.243 17 25 17H29.515C29.678 17 29.839 17.013 30 17.024V24C30 25.654 31.346 27 33 27H39.976C39.987 27.161 40 27.322 40 27.485ZM27 35C26.994 33.692 25.006 33.693 25 35V37C25.006 38.308 26.994 38.307 27 37V35ZM31 30C30.994 28.692 29.006 28.693 29 30V37C29.006 38.308 30.994 38.307 31 37V30ZM35 33C34.994 31.692 33.005 31.693 33 33V37C33.006 38.308 34.995 38.307 35 37V33Z" fill="#5370F6"/>
</g>
<defs>
<clipPath id="clip0_1013_323">
<rect width="24" height="24" fill="white" transform="translate(18 17)"/>
</clipPath>
</defs>
</svg>
