<svg width="60" height="58" viewBox="0 0 60 58" fill="none" xmlns="http://www.w3.org/2000/svg">
<rect width="60" height="58" rx="5" fill="#FFC418" fill-opacity="0.2"/>
<path d="M32 24V17.46C32.9251 17.8093 33.7653 18.3513 34.465 19.05L37.949 22.536C38.6485 23.2349 39.1909 24.0749 39.54 25H33C32.7348 25 32.4804 24.8946 32.2929 24.7071C32.1054 24.5196 32 24.2652 32 24ZM40 27.485V36C39.9984 37.3256 39.4711 38.5964 38.5338 39.5338C37.5964 40.4711 36.3256 40.9984 35 41H25C23.6744 40.9984 22.4036 40.4711 21.4662 39.5338C20.5289 38.5964 20.0016 37.3256 20 36V22C20.0016 20.6744 20.5289 19.4036 21.4662 18.4662C22.4036 17.5289 23.6744 17.0016 25 17H29.515C29.678 17 29.839 17.013 30 17.024V24C30 24.7956 30.3161 25.5587 30.8787 26.1213C31.4413 26.6839 32.2044 27 33 27H39.976C39.987 27.161 40 27.322 40 27.485ZM32 36C32 35.7348 31.8946 35.4804 31.7071 35.2929C31.5196 35.1054 31.2652 35 31 35H26C25.7348 35 25.4804 35.1054 25.2929 35.2929C25.1054 35.4804 25 35.7348 25 36C25 36.2652 25.1054 36.5196 25.2929 36.7071C25.4804 36.8946 25.7348 37 26 37H31C31.2652 37 31.5196 36.8946 31.7071 36.7071C31.8946 36.5196 32 36.2652 32 36ZM35 32C35 31.7348 34.8946 31.4804 34.7071 31.2929C34.5196 31.1054 34.2652 31 34 31H26C25.7348 31 25.4804 31.1054 25.2929 31.2929C25.1054 31.4804 25 31.7348 25 32C25 32.2652 25.1054 32.5196 25.2929 32.7071C25.4804 32.8946 25.7348 33 26 33H34C34.2652 33 34.5196 32.8946 34.7071 32.7071C34.8946 32.5196 35 32.2652 35 32Z" fill="#FFC418"/>
</svg>
