<svg width="20" height="21" viewBox="0 0 20 21" fill="none" xmlns="http://www.w3.org/2000/svg">
<g clip-path="url(#clip0_850_1056)">
<path d="M18.3333 7.76984V4.66651C18.3333 4.20651 17.9608 3.83318 17.5 3.83318C17.0392 3.83318 16.6667 4.20651 16.6667 4.66651V6.63818L12.3308 3.71234C10.915 2.75734 9.085 2.75734 7.66917 3.71234L1.83583 7.64901C0.686667 8.42484 0 9.71568 0 11.1032V18.8332C0 21.1307 1.86917 22.9998 4.16667 22.9998H6.66667C7.1275 22.9998 7.5 22.6265 7.5 22.1665V15.4998C7.5 15.0407 7.87333 14.6665 8.33333 14.6665H11.6667C12.1267 14.6665 12.5 15.0407 12.5 15.4998V22.1665C12.5 22.6265 12.8725 22.9998 13.3333 22.9998H15.8333C18.1308 22.9998 20 21.1307 20 18.8332V11.1032C20 9.78568 19.38 8.55484 18.3333 7.76984ZM18.3333 18.8332C18.3333 20.2115 17.2117 21.3332 15.8333 21.3332H14.1667V15.4998C14.1667 14.1215 13.045 12.9998 11.6667 12.9998H8.33333C6.955 12.9998 5.83333 14.1215 5.83333 15.4998V21.3332H4.16667C2.78833 21.3332 1.66667 20.2115 1.66667 18.8332V11.1032C1.66667 10.2707 2.07833 9.49568 2.76833 9.03068L8.60167 5.09401C9.45167 4.52068 10.5483 4.52068 11.3975 5.09401L17.2308 9.03068C17.9208 9.49568 18.3325 10.2707 18.3325 11.1032L18.3333 18.8332Z" fill="white" fill-opacity="0.7"/>
</g>
<defs>
<clipPath id="clip0_850_1056">
<rect width="20" height="20" fill="white" transform="translate(0 0.217529)"/>
</clipPath>
</defs>
</svg>
